SourceCode_Black-Italic.ufo
<glyph name="ampersand" format="1">
	<unicode hex="0026"/>
	<advance width="600"/>
	<outline>
		<contour>
			<point x="188" y="-12" type="curve" smooth="yes"/>
			<point x="286" y="-12"/>
			<point x="370" y="27"/>
			<point x="437" y="98" type="curve" smooth="yes"/>
			<point x="510" y="176"/>
			<point x="556" y="260"/>
			<point x="600" y="362" type="curve"/>
			<point x="460" y="362" type="line"/>
			<point x="430" y="287"/>
			<point x="399" y="221"/>
			<point x="342" y="168" type="curve" smooth="yes"/>
			<point x="298" y="128"/>
			<point x="256" y="108"/>
			<point x="216" y="108" type="curve" smooth="yes"/>
			<point x="176" y="108"/>
			<point x="154" y="134"/>
			<point x="154" y="170" type="curve" smooth="yes"/>
			<point x="154" y="298"/>
			<point x="458" y="314"/>
			<point x="458" y="522" type="curve" smooth="yes"/>
			<point x="458" y="608"/>
			<point x="406" y="662"/>
			<point x="314" y="662" type="curve" smooth="yes"/>
			<point x="188" y="662"/>
			<point x="110" y="572"/>
			<point x="110" y="466" type="curve" smooth="yes"/>
			<point x="110" y="340"/>
			<point x="205" y="178"/>
			<point x="329" y="78" type="curve" smooth="yes"/>
			<point x="386" y="32"/>
			<point x="451" y="0"/>
			<point x="514" y="-12" type="curve"/>
			<point x="576" y="114" type="line"/>
			<point x="540" y="122"/>
			<point x="486" y="140"/>
			<point x="440" y="173" type="curve" smooth="yes"/>
			<point x="339" y="245"/>
			<point x="242" y="365"/>
			<point x="242" y="470" type="curve" smooth="yes"/>
			<point x="242" y="526"/>
			<point x="270" y="558"/>
			<point x="304" y="558" type="curve" smooth="yes"/>
			<point x="322" y="558"/>
			<point x="334" y="546"/>
			<point x="334" y="525" type="curve" smooth="yes"/>
			<point x="334" y="380"/>
			<point x="0" y="376"/>
			<point x="0" y="154" type="curve" smooth="yes"/>
			<point x="0" y="56"/>
			<point x="68" y="-12"/>
		</contour>
	</outline>
</glyph>
<glyph name="period" format="1">
	<unicode hex="002E"/>
	<advance width="600"/>
	<outline>
		<contour>
			<point x="242" y="-12" type="curve" smooth="yes"/>
			<point x="324" y="-12"/>
			<point x="380" y="51"/>
			<point x="380" y="128" type="curve" smooth="yes"/>
			<point x="380" y="188"/>
			<point x="340" y="234"/>
			<point x="280" y="234" type="curve" smooth="yes"/>
			<point x="198" y="234"/>
			<point x="142" y="171"/>
			<point x="142" y="94" type="curve" smooth="yes"/>
			<point x="142" y="34"/>
			<point x="182" y="-12"/>
		</contour>
	</outline>
</glyph>
<glyph name="six" format="2">
	<unicode hex="0036"/>
	<advance width="600"/>
	<outline>
		<contour>
			<point x="276" y="-12" type="curve" smooth="yes"/>
			<point x="423" y="-12"/>
			<point x="526" y="110"/>
			<point x="526" y="234" type="curve" smooth="yes"/>
			<point x="526" y="350"/>
			<point x="446" y="400"/>
			<point x="348" y="400" type="curve" smooth="yes"/>
			<point x="310" y="400"/>
			<point x="244" y="380"/>
			<point x="207" y="340" type="curve"/>
			<point x="192" y="228" type="line"/>
			<point x="232" y="280"/>
			<point x="272" y="292"/>
			<point x="304" y="292" type="curve" smooth="yes"/>
			<point x="354" y="292"/>
			<point x="380" y="266"/>
			<point x="380" y="221" type="curve" smooth="yes"/>
			<point x="380" y="174"/>
			<point x="352" y="106"/>
			<point x="284" y="106" type="curve" smooth="yes"/>
			<point x="234" y="106"/>
			<point x="198" y="138"/>
			<point x="198" y="202" type="curve" smooth="yes"/>
			<point x="198" y="422"/>
			<point x="286" y="518"/>
			<point x="386" y="518" type="curve" smooth="yes"/>
			<point x="430" y="518"/>
			<point x="458" y="502"/>
			<point x="480" y="472" type="curve"/>
			<point x="580" y="556" type="line"/>
			<point x="550" y="596"/>
			<point x="490" y="646"/>
			<point x="396" y="646" type="curve" smooth="yes"/>
			<point x="194" y="646"/>
			<point x="50" y="478"/>
			<point x="50" y="218" type="curve" smooth="yes"/>
			<point x="50" y="81"/>
			<point x="138" y="-12"/>
		</contour>
	</outline>
</glyph>
<glyph name="B" format="1">
	<unicode hex="0042"/>
	<advance width="600"/>
	<outline>
		<contour>
			<point x="20" y="0" type="line"/>
			<point x="254" y="0" type="line" smooth="yes"/>
			<point x="406" y="0"/>
			<point x="540" y="60"/>
			<point x="540" y="216" type="curve" smooth="yes"/>
			<point x="540" y="276"/>
			<point x="504" y="316"/>
			<point x="430" y="334" type="curve"/>
			<point x="432" y="338" type="line"/>
			<point x="522" y="366"/>
			<point x="572" y="430"/>
			<point x="572" y="500" type="curve" smooth="yes"/>
			<point x="572" y="606"/>
			<point x="478" y="650"/>
			<point x="346" y="650" type="curve" smooth="yes"/>
			<point x="150" y="650" type="line"/>
		</contour>
		<contour>
			<point x="258" y="390" type="line"/>
			<point x="286" y="528" type="line"/>
			<point x="320" y="528" type="line" smooth="yes"/>
			<point x="380" y="528"/>
			<point x="408" y="508"/>
			<point x="408" y="472" type="curve" smooth="yes"/>
			<point x="408" y="422"/>
			<point x="378" y="390"/>
			<point x="300" y="390" type="curve" smooth="yes"/>
		</contour>
		<contour>
			<point x="204" y="122" type="line"/>
			<point x="236" y="282" type="line"/>
			<point x="298" y="282" type="line" smooth="yes"/>
			<point x="358" y="282"/>
			<point x="386" y="258"/>
			<point x="386" y="210" type="curve" smooth="yes"/>
			<point x="386" y="156"/>
			<point x="346" y="122"/>
			<point x="266" y="122" type="curve" smooth="yes"/>
		</contour>
		<contour>
			<point name="aboveUC" x="374" y="670" type="move"/>
		</contour>
		<contour>
			<point name="belowLC" x="250" y="-20" type="move"/>
		</contour>
	</outline>
</glyph>
<glyph name="H" format="2">
	<unicode hex="0048"/>
	<advance width="600"/>
	<outline>
		<contour>
			<point x="-2" y="0" type="line"/>
			<point x="158" y="0" type="line"/>
			<point x="210" y="266" type="line"/>
			<point x="370" y="266" type="line"/>
			<point x="316" y="0" type="line"/>
			<point x="476" y="0" type="line"/>
			<point x="606" y="650" type="line"/>
			<point x="446" y="650" type="line"/>
			<point x="398" y="406" type="line"/>
			<point x="238" y="406" type="line"/>
			<point x="288" y="650" type="line"/>
			<point x="128" y="650" type="line"/>
		</contour>
	</outline>
	<anchor name="aboveUC" x="370" y="670"/>
	<anchor name="baseLC" x="84" y="0"/>
	<anchor name="belowLC" x="234" y="-20"/>
</glyph>
<glyph name="I" format="2">
	<unicode hex="0049"/>
	<advance width="600"/>
	<outline>
		<contour>
			<point x="8" y="0" type="line"/>
			<point x="466" y="0" type="line"/>
			<point x="494" y="134" type="line"/>
			<point x="344" y="134" type="line"/>
			<point x="422" y="516" type="line"/>
			<point x="570" y="516" type="line"/>
			<point x="598" y="650" type="line"/>
			<point x="140" y="650" type="line"/>
			<point x="112" y="516" type="line"/>
			<point x="262" y="516" type="line"/>
			<point x="184" y="134" type="line"/>
			<point x="36" y="134" type="line"/>
		</contour>
	</outline>
	<anchor name="aboveUC" x="370" y="670"/>
	<anchor name="baseLC" x="238" y="0"/>
	<anchor name="belowLC" x="234" y="-20"/>
	<anchor name="ogonekUC" x="238" y="0"/>
</glyph>
<glyph name="M" format="1">
	<unicode hex="004D"/>
	<advance width="600"/>
	<outline>
		<contour>
			<point x="-6" y="0" type="line"/>
			<point x="126" y="0" type="line"/>
			<point x="170" y="212" type="line" smooth="yes"/>
			<point x="182" y="272"/>
			<point x="196" y="406"/>
			<point x="205" y="496" type="curve"/>
			<point x="209" y="496" type="line"/>
			<point x="211" y="446"/>
			<point x="214" y="349"/>
			<point x="218" y="296" type="curve" smooth="yes"/>
			<point x="228" y="174" type="line"/>
			<point x="316" y="174" type="line"/>
			<point x="381" y="312" type="line" smooth="yes"/>
			<point x="399" y="350"/>
			<point x="443" y="450"/>
			<point x="464" y="496" type="curve"/>
			<point x="468" y="496" type="line"/>
			<point x="447" y="423"/>
			<point x="398" y="258"/>
			<point x="384" y="188" type="curve"/>
			<point x="346" y="0" type="line"/>
			<point x="482" y="0" type="line"/>
			<point x="612" y="650" type="line"/>
			<point x="448" y="650" type="line"/>
			<point x="342" y="434" type="line"/>
			<point x="306" y="338" type="line"/>
			<point x="302" y="338" type="line"/>
			<point x="300" y="438" type="line"/>
			<point x="288" y="650" type="line"/>
			<point x="124" y="650" type="line"/>
		</contour>
		<contour>
			<point name="aboveUC" x="370" y="670" type="move"/>
		</contour>
		<contour>
			<point name="baseLC" x="416" y="0" type="move"/>
		</contour>
		<contour>
			<point name="belowLC" x="234" y="-20" type="move"/>
		</contour>
	</outline>
</glyph>
<glyph name="U" format="2">
	<unicode hex="0055"/>
	<advance width="600"/>
	<outline>
		<contour>
			<point x="247" y="-12" type="curve" smooth="yes"/>
			<point x="400" y="-12"/>
			<point x="488" y="58"/>
			<point x="530" y="268" type="curve" smooth="yes"/>
			<point x="606" y="650" type="line"/>
			<point x="450" y="650" type="line"/>
			<point x="376" y="276" type="line" smooth="yes"/>
			<point x="352" y="156"/>
			<point x="324" y="126"/>
			<point x="268" y="126" type="curve" smooth="yes"/>
			<point x="226" y="126"/>
			<point x="204" y="154"/>
			<point x="204" y="208" type="curve" smooth="yes"/>
			<point x="204" y="234"/>
			<point x="211" y="261"/>
			<point x="216" y="288" type="curve" smooth="yes"/>
			<point x="288" y="650" type="line"/>
			<point x="128" y="650" type="line"/>
			<point x="60" y="308" type="line" smooth="yes"/>
			<point x="52" y="270"/>
			<point x="48" y="236"/>
			<point x="48" y="196" type="curve" smooth="yes"/>
			<point x="48" y="74"/>
			<point x="112" y="-12"/>
		</contour>
	</outline>
	<anchor name="aboveUC" x="370" y="670"/>
	<anchor name="baseLC" x="238" y="0"/>
	<anchor name="belowLC" x="230" y="-20"/>
	<anchor name="hornLC" x="456" y="660"/>
	<anchor name="ogonekUC" x="238" y="0"/>
</glyph>
<glyph name="bracketright" format="1">
	<unicode hex="005D"/>
	<advance width="600"/>
	<outline>
		<contour>
			<point x="14" y="-152" type="line"/>
			<point x="312" y="-152" type="line"/>
			<point x="486" y="708" type="line"/>
			<point x="188" y="708" type="line"/>
			<point x="172" y="624" type="line"/>
			<point x="350" y="624" type="line"/>
			<point x="210" y="-68" type="line"/>
			<point x="30" y="-68" type="line"/>
		</contour>
	</outline>
</glyph>
<glyph name="asciicircum" format="1">
	<unicode hex="005E"/>
	<advance width="600"/>
	<outline>
		<contour>
			<point x="80" y="272" type="line"/>
			<point x="212" y="272" type="line"/>
			<point x="253" y="390" type="line"/>
			<point x="298" y="526" type="line"/>
			<point x="302" y="526" type="line"/>
			<point x="347" y="390" type="line"/>
			<point x="388" y="272" type="line"/>
			<point x="520" y="272" type="line"/>
			<point x="364" y="670" type="line"/>
			<point x="236" y="670" type="line"/>
		</contour>
	</outline>
</glyph>
<glyph name="t" format="1">
	<unicode hex="0074"/>
	<advance width="600"/>
	<outline>
		<contour>
			<point x="310" y="-12" type="curve" smooth="yes"/>
			<point x="390" y="-12"/>
			<point x="467" y="12"/>
			<point x="512" y="43" type="curve"/>
			<point x="464" y="154" type="line"/>
			<point x="436" y="136"/>
			<point x="398" y="118"/>
			<point x="360" y="118" type="curve" smooth="yes"/>
			<point x="323" y="118"/>
			<point x="296" y="134"/>
			<point x="296" y="180" type="curve" smooth="yes"/>
			<point x="296" y="190"/>
			<point x="296" y="198"/>
			<point x="300" y="216" type="curve" smooth="yes"/>
			<point x="334" y="376" type="line"/>
			<point x="536" y="376" type="line"/>
			<point x="560" y="500" type="line"/>
			<point x="360" y="500" type="line"/>
			<point x="392" y="650" type="line"/>
			<point x="262" y="650" type="line"/>
			<point x="208" y="500" type="line"/>
			<point x="74" y="494" type="line"/>
			<point x="50" y="376" type="line"/>
			<point x="176" y="376" type="line"/>
			<point x="142" y="208" type="line" smooth="yes"/>
			<point x="136" y="180"/>
			<point x="134" y="162"/>
			<point x="134" y="142" type="curve" smooth="yes"/>
			<point x="134" y="48"/>
			<point x="186" y="-12"/>
		</contour>
		<contour>
			<point name="aboveLC" x="326" y="644" type="move"/>
		</contour>
		<contour>
			<point name="baseLC" x="304" y="0" type="move"/>
		</contour>
		<contour>
			<point name="belowLC" x="304" y="-20" type="move"/>
		</contour>
	</outline>
</glyph>
<glyph name="currency" format="1">
	<unicode hex="00A4"/>
	<advance width="600"/>
	<outline>
		<contour>
			<point x="78" y="63" type="line"/>
			<point x="170" y="146" type="line"/>
			<point x="196" y="135"/>
			<point x="227" y="129"/>
			<point x="261" y="129" type="curve" smooth="yes"/>
			<point x="298" y="129"/>
			<point x="334" y="136"/>
			<point x="366" y="148" type="curve"/>
			<point x="438" y="55" type="line"/>
			<point x="534" y="134" type="line"/>
			<point x="467" y="216" type="line"/>
			<point x="504" y="256"/>
			<point x="526" y="308"/>
			<point x="526" y="363" type="curve" smooth="yes"/>
			<point x="526" y="385"/>
			<point x="522" y="407"/>
			<point x="514" y="427" type="curve"/>
			<point x="611" y="504" type="line"/>
			<point x="539" y="592" type="line"/>
			<point x="440" y="509" type="line"/>
			<point x="413" y="523"/>
			<point x="380" y="531"/>
			<point x="341" y="531" type="curve" smooth="yes"/>
			<point x="303" y="531"/>
			<point x="267" y="524"/>
			<point x="235" y="511" type="curve"/>
			<point x="165" y="598" type="line"/>
			<point x="66" y="516" type="line"/>
			<point x="132" y="439" type="line"/>
			<point x="97" y="399"/>
			<point x="76" y="349"/>
			<point x="76" y="296" type="curve" smooth="yes"/>
			<point x="76" y="267"/>
			<point x="82" y="241"/>
			<point x="92" y="219" type="curve"/>
			<point x="1" y="142" type="line"/>
		</contour>
		<contour>
			<point x="283" y="240" type="curve" smooth="yes"/>
			<point x="244" y="240"/>
			<point x="218" y="268"/>
			<point x="218" y="312" type="curve" smooth="yes"/>
			<point x="218" y="378"/>
			<point x="266" y="424"/>
			<point x="320" y="424" type="curve" smooth="yes"/>
			<point x="358" y="424"/>
			<point x="385" y="396"/>
			<point x="385" y="351" type="curve" smooth="yes"/>
			<point x="385" y="285"/>
			<point x="336" y="240"/>
		</contour>
	</outline>
</glyph>
<glyph name="yen" format="2">
	<unicode hex="00A5"/>
	<advance width="600"/>
	<outline>
		<contour>
			<point x="162" y="0" type="line"/>
			<point x="323" y="0" type="line"/>
			<point x="374" y="275" type="line"/>
			<point x="640" y="635" type="line"/>
			<point x="472" y="635" type="line"/>
			<point x="393" y="507" type="line" smooth="yes"/>
			<point x="367" y="464"/>
			<point x="338" y="407"/>
			<point x="319" y="365" type="curve"/>
			<point x="315" y="365" type="line"/>
			<point x="308" y="411"/>
			<point x="298" y="463"/>
			<point x="287" y="507" type="curve" smooth="yes"/>
			<point x="254" y="635" type="line"/>
			<point x="94" y="635" type="line"/>
			<point x="217" y="283" type="line"/>
		</contour>
		<contour>
			<point x="23" y="134" type="line"/>
			<point x="515" y="134" type="line"/>
			<point x="531" y="208" type="line"/>
			<point x="40" y="208" type="line"/>
		</contour>
		<contour>
			<point x="48" y="261" type="line"/>
			<point x="538" y="261" type="line"/>
			<point x="556" y="336" type="line"/>
			<point x="65" y="336" type="line"/>
		</contour>
	</outline>
</glyph>
<glyph name="logicalnot" format="1">
	<unicode hex="00AC"/>
	<advance width="600"/>
	<outline>
		<contour>
			<point x="417" y="92" type="line"/>
			<point x="533" y="92" type="line"/>
			<point x="533" y="386" type="line"/>
			<point x="67" y="386" type="line"/>
			<point x="67" y="274" type="line"/>
			<point x="417" y="274" type="line"/>
		</contour>
	</outline>
</glyph>
<glyph name="Oslash" format="1">
	<unicode hex="00D8"/>
	<advance width="600"/>
	<outline>
		<contour>
			<point x="250" y="-12" type="curve" smooth="yes"/>
			<point x="442" y="-12"/>
			<point x="580" y="164"/>
			<point x="580" y="394" type="curve" smooth="yes"/>
			<point x="580" y="562"/>
			<point x="493" y="662"/>
			<point x="358" y="662" type="curve" smooth="yes"/>
			<point x="165" y="662"/>
			<point x="26" y="486"/>
			<point x="26" y="256" type="curve" smooth="yes"/>
			<point x="26" y="88"/>
			<point x="114" y="-12"/>
		</contour>
		<contour>
			<point x="266" y="126" type="curve" smooth="yes"/>
			<point x="214" y="126"/>
			<point x="184" y="160"/>
			<point x="184" y="270" type="curve" smooth="yes"/>
			<point x="184" y="400"/>
			<point x="256" y="524"/>
			<point x="342" y="524" type="curve" smooth="yes"/>
			<point x="393" y="524"/>
			<point x="422" y="490"/>
			<point x="422" y="380" type="curve" smooth="yes"/>
			<point x="422" y="250"/>
			<point x="352" y="126"/>
		</contour>
		<contour>
			<point x="44" y="-44" type="line"/>
			<point x="636" y="640" type="line"/>
			<point x="563" y="694" type="line"/>
			<point x="-28" y="10" type="line"/>
		</contour>
		<contour>
			<point name="aboveUC" x="370" y="670" type="move"/>
		</contour>
		<contour>
			<point name="baseLC" x="238" y="0" type="move"/>
		</contour>
	</outline>
</glyph>
<glyph name="ae" format="1">
	<unicode hex="00E6"/>
	<advance width="600"/>
	<outline>
		<contour>
			<point x="106" y="-12" type="curve" smooth="yes"/>
			<point x="172" y="-12"/>
			<point x="222" y="20"/>
			<point x="272" y="78" type="curve"/>
			<point x="232" y="150" type="line"/>
			<point x="213" y="130"/>
			<point x="183" y="108"/>
			<point x="158" y="108" type="curve" smooth="yes"/>
			<point x="138" y="108"/>
			<point x="126" y="120"/>
			<point x="126" y="142" type="curve" smooth="yes"/>
			<point x="126" y="180"/>
			<point x="153" y="213"/>
			<point x="246" y="228" type="curve"/>
			<point x="257" y="322" type="line"/>
			<point x="62" y="294"/>
			<point x="-18" y="230"/>
			<point x="-18" y="108" type="curve" smooth="yes"/>
			<point x="-18" y="41"/>
			<point x="22" y="-12"/>
		</contour>
		<contour>
			<point x="318" y="204" type="line"/>
			<point x="567" y="204" type="line"/>
			<point x="577" y="227"/>
			<point x="595" y="277"/>
			<point x="595" y="348" type="curve" smooth="yes"/>
			<point x="595" y="434"/>
			<point x="558" y="512"/>
			<point x="473" y="512" type="curve" smooth="yes"/>
			<point x="419" y="512"/>
			<point x="367" y="488"/>
			<point x="323" y="433" type="curve"/>
			<point x="345" y="423" type="line"/>
			<point x="335" y="475"/>
			<point x="295" y="512"/>
			<point x="238" y="512" type="curve" smooth="yes"/>
			<point x="162" y="512"/>
			<point x="98" y="486"/>
			<point x="46" y="446" type="curve"/>
			<point x="98" y="354" type="line"/>
			<point x="134" y="377"/>
			<point x="163" y="388"/>
			<point x="197" y="388" type="curve" smooth="yes"/>
			<point x="235" y="388"/>
			<point x="249" y="355"/>
			<point x="240" y="314" type="curve" smooth="yes"/>
			<point x="232" y="278"/>
			<point x="218" y="236"/>
			<point x="218" y="162" type="curve" smooth="yes"/>
			<point x="218" y="63"/>
			<point x="281" y="-12"/>
			<point x="394" y="-12" type="curve" smooth="yes"/>
			<point x="438" y="-12"/>
			<point x="498" y="6"/>
			<point x="540" y="40" type="curve"/>
			<point x="496" y="138" type="line"/>
			<point x="464" y="116"/>
			<point x="438" y="110"/>
			<point x="408" y="110" type="curve" smooth="yes"/>
			<point x="368" y="110"/>
			<point x="343" y="135"/>
			<point x="343" y="184" type="curve" smooth="yes"/>
			<point x="343" y="300"/>
			<point x="388" y="390"/>
			<point x="440" y="390" type="curve" smooth="yes"/>
			<point x="464" y="390"/>
			<point x="473" y="371"/>
			<point x="473" y="341" type="curve" smooth="yes"/>
			<point x="473" y="324"/>
			<point x="470" y="305"/>
			<point x="466" y="285" type="curve"/>
			<point x="490" y="304" type="line"/>
			<point x="318" y="304" type="line"/>
		</contour>
		<contour>
			<point name="aboveLC" x="340" y="520" type="move"/>
		</contour>
		<contour>
			<point name="baseLC" x="380" y="0" type="move"/>
		</contour>
		<contour>
			<point name="belowLC" x="250" y="-20" type="move"/>
		</contour>
	</outline>
</glyph>
<glyph name="Lslash" format="1">
	<unicode hex="0141"/>
	<advance width="600"/>
	<outline>
		<contour>
			<point x="33" y="164" type="line"/>
			<point x="133" y="214" type="line"/>
			<point x="250" y="268" type="line"/>
			<point x="515" y="400" type="line"/>
			<point x="477" y="502" type="line"/>
			<point x="276" y="400" type="line"/>
			<point x="158" y="346" type="line"/>
			<point x="-5" y="266" type="line"/>
		</contour>
		<component base="L"/>
		<contour>
			<point name="aboveUC" x="266" y="670" type="move"/>
		</contour>
		<contour>
			<point name="belowLC" x="280" y="-20" type="move"/>
		</contour>
	</outline>
</glyph>
<glyph name="lslash" format="1">
	<unicode hex="0142"/>
	<advance width="600"/>
	<outline>
		<contour>
			<point x="102" y="222" type="line"/>
			<point x="203" y="272" type="line"/>
			<point x="345" y="332" type="line"/>
			<point x="560" y="438" type="line"/>
			<point x="522" y="532" type="line"/>
			<point x="372" y="456" type="line"/>
			<point x="229" y="396" type="line"/>
			<point x="66" y="316" type="line"/>
		</contour>
		<component base="l"/>
		<contour>
			<point name="aboveUC" x="360" y="730" type="move"/>
		</contour>
		<contour>
			<point name="belowLC" x="310" y="-20" type="move"/>
		</contour>
	</outline>
</glyph>
<glyph name="OE" format="1">
	<unicode hex="0152"/>
	<advance width="600"/>
	<outline>
		<contour>
			<point x="251" y="0" type="curve" smooth="yes"/>
			<point x="537" y="0" type="line"/>
			<point x="563" y="134" type="line"/>
			<point x="399" y="134" type="line"/>
			<point x="427" y="268" type="line"/>
			<point x="543" y="268" type="line"/>
			<point x="569" y="402" type="line"/>
			<point x="453" y="402" type="line"/>
			<point x="475" y="516" type="line"/>
			<point x="631" y="516" type="line"/>
			<point x="657" y="650" type="line"/>
			<point x="349" y="650" type="line" smooth="yes"/>
			<point x="175" y="650"/>
			<point x="9" y="508"/>
			<point x="9" y="246" type="curve" smooth="yes"/>
			<point x="9" y="77"/>
			<point x="99" y="0"/>
		</contour>
		<contour>
			<point x="255" y="128" type="line" smooth="yes"/>
			<point x="209" y="128"/>
			<point x="173" y="161"/>
			<point x="173" y="256" type="curve" smooth="yes"/>
			<point x="173" y="422"/>
			<point x="251" y="522"/>
			<point x="323" y="522" type="curve" smooth="yes"/>
			<point x="337" y="522" type="line"/>
			<point x="259" y="128" type="line"/>
		</contour>
		<contour>
			<point name="aboveUC" x="328" y="670" type="move"/>
		</contour>
		<contour>
			<point name="baseLC" x="360" y="0" type="move"/>
		</contour>
	</outline>
</glyph>
<glyph name="Schwa" format="1">
	<unicode hex="018F"/>
	<advance width="600"/>
	<outline>
		<contour>
			<point x="236" y="-12" type="curve" smooth="yes"/>
			<point x="428" y="-12"/>
			<point x="569" y="162"/>
			<point x="569" y="416" type="curve" smooth="yes"/>
			<point x="569" y="571"/>
			<point x="495" y="663"/>
			<point x="358" y="663" type="curve" smooth="yes"/>
			<point x="262" y="663"/>
			<point x="182" y="630"/>
			<point x="129" y="593" type="curve"/>
			<point x="192" y="484" type="line"/>
			<point x="227" y="506"/>
			<point x="269" y="529"/>
			<point x="323" y="529" type="curve" smooth="yes"/>
			<point x="381" y="529"/>
			<point x="412" y="485"/>
			<point x="412" y="403" type="curve" smooth="yes"/>
			<point x="412" y="228"/>
			<point x="342" y="118"/>
			<point x="260" y="118" type="curve" smooth="yes"/>
			<point x="214" y="118"/>
			<point x="183" y="162"/>
			<point x="197" y="260" type="curve"/>
			<point x="428" y="260" type="line"/>
			<point x="451" y="375" type="line"/>
			<point x="64" y="375" type="line"/>
			<point x="55" y="346"/>
			<point x="40" y="293"/>
			<point x="40" y="225" type="curve" smooth="yes"/>
			<point x="40" y="79"/>
			<point x="114" y="-12"/>
		</contour>
		<contour>
			<point name="aboveUC" x="360" y="670" type="move"/>
		</contour>
		<contour>
			<point name="baseLC" x="258" y="0" type="move"/>
		</contour>
		<contour>
			<point name="belowLC" x="250" y="-20" type="move"/>
		</contour>
		<contour>
			<point name="ogonekUC" x="258" y="0" type="move"/>
		</contour>
	</outline>
</glyph>
<glyph name="Aringacute" format="1">
	<unicode hex="01FA"/>
	<advance width="600"/>
	<outline>
		<contour>
			<point x="392" y="840" type="line"/>
			<point x="564" y="940" type="line"/>
			<point x="492" y="1024" type="line"/>
			<point x="324" y="872" type="line"/>
		</contour>
		<component base="Aring"/>
	</outline>
</glyph>
<glyph name="alphalatin" format="1">
	<unicode hex="0251"/>
	<advance width="600"/>
	<outline>
		<component base="a"/>
		<contour>
			<point name="aboveLC" x="346" y="520" type="move"/>
		</contour>
		<contour>
			<point name="baseLC" x="414" y="0" type="move"/>
		</contour>
		<contour>
			<point name="belowLC" x="250" y="-20" type="move"/>
		</contour>
	</outline>
</glyph>
<glyph name="dtail" format="1">
	<unicode hex="0256"/>
	<advance width="600"/>
	<outline>
		<contour>
			<point x="424" y="-188" type="curve" smooth="yes"/>
			<point x="470" y="-188"/>
			<point x="498" y="-180"/>
			<point x="516" y="-174" type="curve"/>
			<point x="522" y="-56" type="line"/>
			<point x="514" y="-58"/>
			<point x="508" y="-60"/>
			<point x="500" y="-60" type="curve" smooth="yes"/>
			<point x="486" y="-60"/>
			<point x="474" y="-54"/>
			<point x="474" y="-35" type="curve" smooth="yes"/>
			<point x="474" y="-30"/>
			<point x="474" y="-26"/>
			<point x="476" y="-16" type="curve"/>
			<point x="620" y="696" type="line"/>
			<point x="460" y="696" type="line"/>
			<point x="432" y="550" type="line"/>
			<point x="422" y="456" type="line"/>
			<point x="420" y="456" type="line"/>
			<point x="396" y="490"/>
			<point x="358" y="512"/>
			<point x="294" y="512" type="curve" smooth="yes"/>
			<point x="156" y="512"/>
			<point x="28" y="366"/>
			<point x="28" y="182" type="curve" smooth="yes"/>
			<point x="28" y="58"/>
			<point x="90" y="-12"/>
			<point x="188" y="-12" type="curve" smooth="yes"/>
			<point x="236" y="-12"/>
			<point x="288" y="10"/>
			<point x="330" y="52" type="curve"/>
			<point x="334" y="52" type="line"/>
			<point x="320" y="-2"/>
			<point x="310" y="-42"/>
			<point x="310" y="-78" type="curve" smooth="yes"/>
			<point x="310" y="-146"/>
			<point x="342" y="-188"/>
		</contour>
		<contour>
			<point x="250" y="118" type="curve" smooth="yes"/>
			<point x="216" y="118"/>
			<point x="194" y="144"/>
			<point x="194" y="202" type="curve" smooth="yes"/>
			<point x="194" y="308"/>
			<point x="256" y="382"/>
			<point x="324" y="382" type="curve" smooth="yes"/>
			<point x="345" y="382"/>
			<point x="376" y="370"/>
			<point x="390" y="344" type="curve"/>
			<point x="358" y="188" type="line"/>
			<point x="324" y="138"/>
			<point x="282" y="118"/>
		</contour>
		<contour>
			<point name="aboveUC" x="540" y="730" type="move"/>
		</contour>
		<contour>
			<point name="belowLC" x="190" y="-200" type="move"/>
		</contour>
	</outline>
</glyph>
<glyph name="dotlessjstroke" format="2">
	<unicode hex="025F"/>
	<advance width="600"/>
	<outline>
		<contour>
			<point x="92" y="184" type="line"/>
			<point x="530" y="184" type="line"/>
			<point x="546" y="260" type="line"/>
			<point x="284" y="260" type="line"/>
			<point x="106" y="254" type="line"/>
		</contour>
		<component base="dotlessj"/>
	</outline>
	<anchor name="aboveLC" x="398" y="520"/>
	<anchor name="belowLC" x="170" y="-200"/>
</glyph>
<glyph name="gsmall" format="1">
	<unicode hex="0262"/>
	<advance width="600"/>
	<outline>
		<contour>
			<point x="292" y="-12" type="curve" smooth="yes"/>
			<point x="374" y="-12"/>
			<point x="440" y="12"/>
			<point x="484" y="46" type="curve"/>
			<point x="536" y="304" type="line"/>
			<point x="324" y="304" type="line"/>
			<point x="304" y="204" type="line"/>
			<point x="375" y="204" type="line"/>
			<point x="361" y="120" type="line"/>
			<point x="348" y="114"/>
			<point x="328" y="110"/>
			<point x="310" y="110" type="curve" smooth="yes"/>
			<point x="262" y="110"/>
			<point x="208" y="134"/>
			<point x="208" y="220" type="curve" smooth="yes"/>
			<point x="208" y="303"/>
			<point x="266" y="390"/>
			<point x="348" y="390" type="curve" smooth="yes"/>
			<point x="393" y="390"/>
			<point x="433" y="367"/>
			<point x="459" y="342" type="curve"/>
			<point x="548" y="440" type="line"/>
			<point x="511" y="479"/>
			<point x="450" y="512"/>
			<point x="363" y="512" type="curve" smooth="yes"/>
			<point x="160" y="512"/>
			<point x="46" y="363"/>
			<point x="46" y="206" type="curve" smooth="yes"/>
			<point x="45" y="62"/>
			<point x="172" y="-12"/>
		</contour>
		<contour>
			<point name="aboveLC" x="350" y="520" type="move"/>
		</contour>
		<contour>
			<point name="baseLC" x="278" y="0" type="move"/>
		</contour>
		<contour>
			<point name="belowLC" x="270" y="-20" type="move"/>
		</contour>
	</outline>
</glyph>
<glyph name="rsmall" format="1">
	<unicode hex="0280"/>
	<advance width="600"/>
	<outline>
		<contour>
			<point x="34" y="0" type="line"/>
			<point x="194" y="0" type="line"/>
			<point x="224" y="150" type="line"/>
			<point x="288" y="150" type="line"/>
			<point x="422" y="150"/>
			<point x="536" y="236"/>
			<point x="536" y="360" type="curve" smooth="yes"/>
			<point x="536" y="458"/>
			<point x="460" y="500"/>
			<point x="362" y="500" type="curve" smooth="yes"/>
			<point x="132" y="500" type="line"/>
		</contour>
		<contour>
			<point x="246" y="264" type="line"/>
			<point x="268" y="378" type="line"/>
			<point x="318" y="378" type="line" smooth="yes"/>
			<point x="354" y="379"/>
			<point x="370" y="362"/>
			<point x="370" y="328" type="curve" smooth="yes"/>
			<point x="370" y="296"/>
			<point x="342" y="264"/>
			<point x="296" y="264" type="curve" smooth="yes"/>
		</contour>
		<contour>
			<point x="332" y="0" type="line"/>
			<point x="494" y="0" type="line"/>
			<point x="394" y="242" type="line"/>
			<point x="268" y="196" type="line"/>
		</contour>
		<contour>
			<point name="aboveLC" x="350" y="520" type="move"/>
		</contour>
		<contour>
			<point name="belowLC" x="270" y="-20" type="move"/>
		</contour>
	</outline>
</glyph>
<glyph name="tretroflex" format="1">
	<unicode hex="0288"/>
	<advance width="600"/>
	<outline>
		<contour>
			<point x="274" y="-188" type="curve" smooth="yes"/>
			<point x="354" y="-188"/>
			<point x="431" y="-164"/>
			<point x="476" y="-133" type="curve"/>
			<point x="428" y="-22" type="line"/>
			<point x="400" y="-40"/>
			<point x="362" y="-58"/>
			<point x="324" y="-58" type="curve" smooth="yes"/>
			<point x="287" y="-58"/>
			<point x="260" y="-42"/>
			<point x="260" y="4" type="curve" smooth="yes"/>
			<point x="260" y="14"/>
			<point x="260" y="22"/>
			<point x="264" y="40" type="curve" smooth="yes"/>
			<point x="334" y="376" type="line"/>
			<point x="536" y="376" type="line"/>
			<point x="560" y="500" type="line"/>
			<point x="360" y="500" type="line"/>
			<point x="392" y="650" type="line"/>
			<point x="262" y="650" type="line"/>
			<point x="208" y="500" type="line"/>
			<point x="74" y="494" type="line"/>
			<point x="50" y="376" type="line"/>
			<point x="176" y="376" type="line"/>
			<point x="106" y="32" type="line" smooth="yes"/>
			<point x="100" y="4"/>
			<point x="98" y="-14"/>
			<point x="98" y="-34" type="curve" smooth="yes"/>
			<point x="98" y="-128"/>
			<point x="150" y="-188"/>
		</contour>
		<contour>
			<point name="aboveLC" x="326" y="644" type="move"/>
		</contour>
		<contour>
			<point name="belowLC" x="268" y="-200" type="move"/>
		</contour>
	</outline>
</glyph>
<glyph name="vhook" format="1">
	<unicode hex="028B"/>
	<advance width="600"/>
	<outline>
		<contour>
			<point x="256" y="-12" type="curve" smooth="yes"/>
			<point x="434" y="-12"/>
			<point x="548" y="160"/>
			<point x="548" y="356" type="curve" smooth="yes"/>
			<point x="548" y="465"/>
			<point x="488" y="512"/>
			<point x="406" y="512" type="curve" smooth="yes"/>
			<point x="374" y="512"/>
			<point x="354" y="510"/>
			<point x="334" y="504" type="curve"/>
			<point x="326" y="378" type="line"/>
			<point x="335" y="380"/>
			<point x="337" y="380"/>
			<point x="342" y="380" type="curve" smooth="yes"/>
			<point x="372" y="380"/>
			<point x="386" y="364"/>
			<point x="386" y="328" type="curve" smooth="yes"/>
			<point x="386" y="234"/>
			<point x="340" y="118"/>
			<point x="268" y="118" type="curve" smooth="yes"/>
			<point x="222" y="118"/>
			<point x="204" y="140"/>
			<point x="204" y="188" type="curve" smooth="yes"/>
			<point x="204" y="200"/>
			<point x="204" y="212"/>
			<point x="208" y="234" type="curve" smooth="yes"/>
			<point x="262" y="500" type="line"/>
			<point x="102" y="500" type="line"/>
			<point x="48" y="232" type="line" smooth="yes"/>
			<point x="43" y="208"/>
			<point x="38" y="176"/>
			<point x="38" y="156" type="curve" smooth="yes"/>
			<point x="38" y="40"/>
			<point x="118" y="-12"/>
		</contour>
		<contour>
			<point name="aboveLC" x="340" y="520" type="move"/>
		</contour>
		<contour>
			<point name="belowLC" x="234" y="-20" type="move"/>
		</contour>
	</outline>
</glyph>
<glyph name="yturned" format="1">
	<unicode hex="028E"/>
	<advance width="600"/>
	<outline>
		<contour>
			<point x="-32" y="0" type="line"/>
			<point x="130" y="0" type="line"/>
			<point x="230" y="194" type="line" smooth="yes"/>
			<point x="256" y="244"/>
			<point x="288" y="312"/>
			<point x="306" y="354" type="curve"/>
			<point x="310" y="354" type="line"/>
			<point x="314" y="312"/>
			<point x="322" y="244"/>
			<point x="330" y="194" type="curve" smooth="yes"/>
			<point x="362" y="0" type="line"/>
			<point x="516" y="0" type="line"/>
			<point x="407" y="496" type="line"/>
			<point x="434" y="540" type="line" smooth="yes"/>
			<point x="455" y="574"/>
			<point x="480" y="590"/>
			<point x="526" y="590" type="curve" smooth="yes"/>
			<point x="546" y="590"/>
			<point x="574" y="582"/>
			<point x="590" y="574" type="curve"/>
			<point x="634" y="682" type="line"/>
			<point x="614" y="696"/>
			<point x="574" y="708"/>
			<point x="536" y="708" type="curve" smooth="yes"/>
			<point x="418" y="708"/>
			<point x="340" y="650"/>
			<point x="266" y="520" type="curve" smooth="yes"/>
		</contour>
		<contour>
			<point name="aboveUC" x="468" y="730" type="move"/>
		</contour>
		<contour>
			<point name="belowLC" x="240" y="-20" type="move"/>
		</contour>
	</outline>
</glyph>
<glyph name="ts" format="1">
	<unicode hex="02A6"/>
	<advance width="600"/>
	<outline>
		<contour>
			<point x="268" y="-12" type="curve" smooth="yes"/>
			<point x="476" y="-12"/>
			<point x="560" y="66"/>
			<point x="560" y="174" type="curve" smooth="yes"/>
			<point x="560" y="292"/>
			<point x="440" y="309"/>
			<point x="440" y="358" type="curve" smooth="yes"/>
			<point x="440" y="380"/>
			<point x="451" y="394"/>
			<point x="470" y="394" type="curve" smooth="yes"/>
			<point x="492" y="394"/>
			<point x="507" y="385"/>
			<point x="526" y="366" type="curve"/>
			<point x="602" y="452" type="line"/>
			<point x="568" y="487"/>
			<point x="527" y="512"/>
			<point x="472" y="512" type="curve" smooth="yes"/>
			<point x="371" y="512"/>
			<point x="290" y="440"/>
			<point x="290" y="344" type="curve" smooth="yes"/>
			<point x="290" y="224"/>
			<point x="410" y="223"/>
			<point x="410" y="156" type="curve" smooth="yes"/>
			<point x="410" y="128"/>
			<point x="388" y="108"/>
			<point x="310" y="108" type="curve" smooth="yes"/>
			<point x="240" y="108"/>
			<point x="204" y="129"/>
			<point x="204" y="176" type="curve" smooth="yes"/>
			<point x="204" y="193"/>
			<point x="208" y="207"/>
			<point x="212" y="228" type="curve" smooth="yes"/>
			<point x="242" y="376" type="line"/>
			<point x="394" y="376" type="line"/>
			<point x="418" y="500" type="line"/>
			<point x="268" y="500" type="line"/>
			<point x="300" y="650" type="line"/>
			<point x="170" y="650" type="line"/>
			<point x="116" y="500" type="line"/>
			<point x="44" y="494" type="line"/>
			<point x="20" y="376" type="line"/>
			<point x="84" y="376" type="line"/>
			<point x="54" y="234" type="line" smooth="yes"/>
			<point x="48" y="205"/>
			<point x="40" y="176"/>
			<point x="40" y="148" type="curve" smooth="yes"/>
			<point x="40" y="54"/>
			<point x="107" y="-12"/>
		</contour>
		<contour>
			<point name="aboveLC" x="396" y="644" type="move"/>
		</contour>
		<contour>
			<point name="belowLC" x="274" y="-20" type="move"/>
		</contour>
	</outline>
</glyph>
<glyph name="h.sups" format="1">
	<unicode hex="02B0"/>
	<advance width="600"/>
	<outline>
		<contour>
			<point x="163" y="368" type="line"/>
			<point x="273" y="368" type="line"/>
			<point x="317" y="586" type="line"/>
			<point x="338" y="602"/>
			<point x="358" y="613"/>
			<point x="381" y="613" type="curve" smooth="yes"/>
			<point x="409" y="613"/>
			<point x="415" y="596"/>
			<point x="407" y="557" type="curve" smooth="yes"/>
			<point x="370" y="368" type="line"/>
			<point x="480" y="368" type="line"/>
			<point x="521" y="571" type="line" smooth="yes"/>
			<point x="537" y="653"/>
			<point x="516" y="706"/>
			<point x="442" y="706" type="curve" smooth="yes"/>
			<point x="394" y="706"/>
			<point x="352" y="681"/>
			<point x="325" y="659" type="curve"/>
			<point x="344" y="719" type="line"/>
			<point x="365" y="828" type="line"/>
			<point x="255" y="828" type="line"/>
		</contour>
	</outline>
</glyph>
<glyph name="ringhalfrightmod" format="2">
	<unicode hex="02BE"/>
	<advance width="600"/>
	<outline>
		<contour>
			<point x="262" y="538" type="line"/>
			<point x="414" y="536"/>
			<point x="490" y="598"/>
			<point x="490" y="698" type="curve" smooth="yes"/>
			<point x="490" y="784"/>
			<point x="424" y="838"/>
			<point x="310" y="834" type="curve"/>
			<point x="294" y="750" type="line"/>
			<point x="347" y="750"/>
			<point x="370" y="724"/>
			<point x="370" y="690" type="curve" smooth="yes"/>
			<point x="370" y="656"/>
			<point x="340" y="626"/>
			<point x="278" y="622" type="curve"/>
		</contour>
	</outline>
</glyph>
<glyph name="s.sups" format="1">
	<unicode hex="02E2"/>
	<advance width="600"/>
	<outline>
		<contour>
			<point x="322" y="360" type="curve" smooth="yes"/>
			<point x="415" y="360"/>
			<point x="489" y="400"/>
			<point x="489" y="475" type="curve" smooth="yes"/>
			<point x="489" y="534"/>
			<point x="449" y="557"/>
			<point x="397" y="572" type="curve" smooth="yes"/>
			<point x="357" y="584"/>
			<point x="339" y="591"/>
			<point x="339" y="605" type="curve" smooth="yes"/>
			<point x="339" y="620"/>
			<point x="360" y="624"/>
			<point x="378" y="624" type="curve" smooth="yes"/>
			<point x="409" y="624"/>
			<point x="438" y="611"/>
			<point x="462" y="589" type="curve"/>
			<point x="522" y="655" type="line"/>
			<point x="491" y="684"/>
			<point x="449" y="706"/>
			<point x="382" y="706" type="curve" smooth="yes"/>
			<point x="302" y="706"/>
			<point x="232" y="670"/>
			<point x="232" y="591" type="curve" smooth="yes"/>
			<point x="232" y="536"/>
			<point x="272" y="507"/>
			<point x="323" y="491" type="curve" smooth="yes"/>
			<point x="364" y="478"/>
			<point x="382" y="472"/>
			<point x="382" y="459" type="curve" smooth="yes"/>
			<point x="382" y="446"/>
			<point x="363" y="441"/>
			<point x="337" y="441" type="curve" smooth="yes"/>
			<point x="297" y="441"/>
			<point x="266" y="458"/>
			<point x="239" y="485" type="curve"/>
			<point x="182" y="417" type="line"/>
			<point x="214" y="387"/>
			<point x="264" y="360"/>
		</contour>
	</outline>
</glyph>
<glyph name="hungarumlautcmb" format="2">
	<unicode hex="030B"/>
	<advance width="600"/>
	<outline>
		<contour>
			<point x="308" y="566" type="line"/>
			<point x="450" y="728" type="line"/>
			<point x="346" y="788" type="line"/>
			<point x="226" y="614" type="line"/>
		</contour>
		<contour>
			<point x="498" y="566" type="line"/>
			<point x="640" y="728" type="line"/>
			<point x="536" y="788" type="line"/>
			<point x="416" y="614" type="line"/>
		</contour>
	</outline>
	<anchor name="_aboveLC" x="340" y="520"/>
</glyph>
<glyph name="caroncmb" format="1">
	<unicode hex="030C"/>
	<advance width="600"/>
	<outline>
		<contour>
			<point x="276" y="580" type="line"/>
			<point x="452" y="580" type="line"/>
			<point x="580" y="704" type="line"/>
			<point x="526" y="768" type="line"/>
			<point x="376" y="680" type="line"/>
			<point x="372" y="680" type="line"/>
			<point x="262" y="768" type="line"/>
			<point x="192" y="708" type="line"/>
		</contour>
		<contour>
			<point name="_aboveLC" x="340" y="520" type="move"/>
		</contour>
	</outline>
</glyph>
<glyph name="dblgravecmb" format="1">
	<unicode hex="030F"/>
	<advance width="600"/>
	<outline>
		<contour>
			<point x="200" y="564" type="line"/>
			<point x="297" y="596" type="line"/>
			<point x="242" y="786" type="line"/>
			<point x="119" y="746" type="line"/>
		</contour>
		<contour>
			<point x="390" y="564" type="line"/>
			<point x="487" y="596" type="line"/>
			<point x="432" y="786" type="line"/>
			<point x="309" y="746" type="line"/>
		</contour>
		<contour>
			<point name="_aboveLC" x="340" y="520" type="move"/>
		</contour>
	</outline>
</glyph>
<glyph name="commaabovecmb" format="2">
	<unicode hex="0313"/>
	<advance width="600"/>
	<outline>
		<contour>
			<point x="306" y="566" type="line"/>
			<point x="400" y="588"/>
			<point x="450" y="644"/>
			<point x="450" y="720" type="curve" smooth="yes"/>
			<point x="450" y="768"/>
			<point x="420" y="800"/>
			<point x="372" y="800" type="curve" smooth="yes"/>
			<point x="328" y="800"/>
			<point x="290" y="770"/>
			<point x="290" y="724" type="curve" smooth="yes"/>
			<point x="290" y="690"/>
			<point x="321" y="666"/>
			<point x="352" y="666" type="curve" smooth="yes"/>
			<point x="376" y="666"/>
			<point x="391" y="675"/>
			<point x="412" y="692" type="curve"/>
			<point x="388" y="730" type="line"/>
			<point x="369" y="682" type="line"/>
			<point x="361" y="650"/>
			<point x="334" y="636"/>
			<point x="285" y="622" type="curve"/>
		</contour>
	</outline>
	<anchor name="_aboveLC" x="340" y="520"/>
</glyph>
<glyph name="leftangleabovecmb" format="2">
	<unicode hex="031A"/>
	<advance width="600"/>
	<outline>
		<contour>
			<point x="380" y="574" type="line"/>
			<point x="465" y="574" type="line"/>
			<point x="495" y="728" type="line"/>
			<point x="307" y="728" type="line"/>
			<point x="291" y="648" type="line"/>
			<point x="395" y="648" type="line"/>
		</contour>
	</outline>
	<anchor name="_aboverightLC" x="354" y="520"/>
</glyph>
<glyph name="horncmb" format="2">
	<unicode hex="031B"/>
	<advance width="600"/>
	<outline>
		<contour>
			<point x="328" y="424" type="line"/>
			<point x="490" y="440"/>
			<point x="544" y="506"/>
			<point x="544" y="618" type="curve" smooth="yes"/>
			<point x="544" y="650"/>
			<point x="540" y="670"/>
			<point x="528" y="704" type="curve"/>
			<point x="410" y="668" type="line"/>
			<point x="416" y="648"/>
			<point x="420" y="630"/>
			<point x="420" y="610" type="curve" smooth="yes"/>
			<point x="420" y="538"/>
			<point x="386" y="498"/>
			<point x="328" y="490" type="curve"/>
		</contour>
	</outline>
	<anchor name="_hornLC" x="240" y="500"/>
</glyph>
<glyph name="uptackbelowcmb" format="1">
	<unicode hex="031D"/>
	<advance width="600"/>
	<outline>
		<contour>
			<point x="83" y="-236" type="line"/>
			<point x="298" y="-236" type="line"/>
			<point x="314" y="-156" type="line"/>
			<point x="249" y="-156" type="line"/>
			<point x="270" y="-52" type="line"/>
			<point x="185" y="-52" type="line"/>
			<point x="165" y="-156" type="line"/>
			<point x="99" y="-156" type="line"/>
		</contour>
		<contour>
			<point name="_belowLC" x="234" y="-20" type="move"/>
		</contour>
	</outline>
</glyph>
<glyph name="verticallinebelowcmb" format="1">
	<unicode hex="0329"/>
	<advance width="600"/>
	<outline>
		<contour>
			<point x="122" y="-270" type="line"/>
			<point x="250" y="-270" type="line"/>
			<point x="280" y="-62" type="line"/>
			<point x="172" y="-62" type="line"/>
		</contour>
		<contour>
			<point name="_belowLC" x="234" y="-20" type="move"/>
		</contour>
	</outline>
</glyph>
<glyph name="macrondoublebelowcmb" format="2">
	<unicode hex="035F"/>
	<advance width="600"/>
	<outline>
		<contour>
			<point x="-307" y="-188" type="line"/>
			<point x="707" y="-188" type="line"/>
			<point x="727" y="-88" type="line"/>
			<point x="-287" y="-88" type="line"/>
		</contour>
	</outline>
</glyph>
<glyph name="d.sups" format="2">
	<unicode hex="1D48"/>
	<advance width="600"/>
	<outline>
		<contour>
			<point x="271" y="360" type="curve" smooth="yes"/>
			<point x="308" y="360"/>
			<point x="338" y="377"/>
			<point x="366" y="399" type="curve"/>
			<point x="369" y="399" type="line"/>
			<point x="371" y="368" type="line"/>
			<point x="461" y="368" type="line"/>
			<point x="553" y="828" type="line"/>
			<point x="442" y="828" type="line"/>
			<point x="421" y="720" type="line"/>
			<point x="416" y="669" type="line"/>
			<point x="399" y="692"/>
			<point x="378" y="706"/>
			<point x="341" y="706" type="curve" smooth="yes"/>
			<point x="245" y="706"/>
			<point x="160" y="623"/>
			<point x="160" y="501" type="curve" smooth="yes"/>
			<point x="160" y="403"/>
			<point x="201" y="360"/>
		</contour>
		<contour>
			<point x="317" y="449" type="curve" smooth="yes"/>
			<point x="291" y="449"/>
			<point x="275" y="466"/>
			<point x="275" y="505" type="curve" smooth="yes"/>
			<point x="275" y="582"/>
			<point x="313" y="616"/>
			<point x="350" y="616" type="curve" smooth="yes"/>
			<point x="366" y="616"/>
			<point x="383" y="611"/>
			<point x="395" y="598" type="curve"/>
			<point x="371" y="474" type="line"/>
			<point x="353" y="455"/>
			<point x="337" y="449"/>
		</contour>
	</outline>
</glyph>
<glyph name="t.sups" format="1">
	<unicode hex="1D57"/>
	<advance width="600"/>
	<outline>
		<contour>
			<point x="356" y="360" type="curve" smooth="yes"/>
			<point x="416" y="360"/>
			<point x="469" y="381"/>
			<point x="494" y="399" type="curve"/>
			<point x="462" y="475" type="line"/>
			<point x="438" y="461"/>
			<point x="421" y="454"/>
			<point x="399" y="454" type="curve" smooth="yes"/>
			<point x="376" y="454"/>
			<point x="358" y="464"/>
			<point x="367" y="508" type="curve" smooth="yes"/>
			<point x="424" y="800" type="line"/>
			<point x="338" y="800" type="line"/>
			<point x="292" y="688" type="line"/>
			<point x="256" y="507" type="line" smooth="yes"/>
			<point x="238" y="419"/>
			<point x="267" y="360"/>
		</contour>
		<contour>
			<point x="196" y="616" type="line"/>
			<point x="196" y="616"/>
			<point x="514" y="616"/>
			<point x="514" y="616" type="curve"/>
			<point x="531" y="698" type="line"/>
			<point x="303" y="698" type="line"/>
			<point x="212" y="692" type="line"/>
		</contour>
	</outline>
</glyph>
<glyph name="u.sups" format="1">
	<unicode hex="1D58"/>
	<advance width="600"/>
	<outline>
		<contour>
			<point x="258" y="360" type="curve" smooth="yes"/>
			<point x="304" y="360"/>
			<point x="346" y="379"/>
			<point x="378" y="412" type="curve"/>
			<point x="380" y="412" type="line"/>
			<point x="382" y="368" type="line"/>
			<point x="469" y="368" type="line"/>
			<point x="535" y="698" type="line"/>
			<point x="423" y="698" type="line"/>
			<point x="380" y="483" type="line"/>
			<point x="361" y="464"/>
			<point x="342" y="453"/>
			<point x="316" y="453" type="curve" smooth="yes"/>
			<point x="292" y="453"/>
			<point x="283" y="470"/>
			<point x="290" y="504" type="curve" smooth="yes"/>
			<point x="328" y="698" type="line"/>
			<point x="219" y="698" type="line"/>
			<point x="178" y="492" type="line" smooth="yes"/>
			<point x="162" y="411"/>
			<point x="183" y="360"/>
		</contour>
	</outline>
</glyph>
<glyph name="fraction" format="1">
	<unicode hex="2044"/>
	<advance width="600"/>
	<outline>
		<contour>
			<point x="4" y="19" type="line"/>
			<point x="206" y="218" type="line"/>
			<point x="162" y="268" type="line"/>
			<point x="-60" y="97" type="line"/>
		</contour>
		<contour>
			<point x="378" y="367" type="line"/>
			<point x="598" y="538" type="line"/>
			<point x="534" y="616" type="line"/>
			<point x="334" y="417" type="line"/>
		</contour>
	</outline>
</glyph>
<glyph name="i.sups" format="1">
	<unicode hex="2071"/>
	<advance width="600"/>
	<outline>
		<contour>
			<point x="367" y="360" type="curve" smooth="yes"/>
			<point x="410" y="360"/>
			<point x="442" y="367"/>
			<point x="471" y="378" type="curve"/>
			<point x="449" y="460" type="line"/>
			<point x="429" y="453"/>
			<point x="416" y="449"/>
			<point x="402" y="449" type="curve" smooth="yes"/>
			<point x="381" y="449"/>
			<point x="366" y="458"/>
			<point x="366" y="482" type="curve" smooth="yes"/>
			<point x="366" y="487"/>
			<point x="367" y="493"/>
			<point x="369" y="498" type="curve" smooth="yes"/>
			<point x="418" y="699" type="line"/>
			<point x="202" y="699" type="line"/>
			<point x="184" y="614" type="line"/>
			<point x="289" y="614" type="line"/>
			<point x="259" y="502" type="line" smooth="yes"/>
			<point x="255" y="487"/>
			<point x="253" y="474"/>
			<point x="253" y="461" type="curve" smooth="yes"/>
			<point x="253" y="399"/>
			<point x="298" y="360"/>
		</contour>
		<contour>
			<point x="369" y="739" type="curve" smooth="yes"/>
			<point x="412" y="739"/>
			<point x="446" y="770"/>
			<point x="446" y="810" type="curve" smooth="yes"/>
			<point x="446" y="849"/>
			<point x="417" y="869"/>
			<point x="378" y="869" type="curve" smooth="yes"/>
			<point x="335" y="869"/>
			<point x="301" y="836"/>
			<point x="301" y="798" type="curve" smooth="yes"/>
			<point x="301" y="758"/>
			<point x="335" y="739"/>
		</contour>
	</outline>
</glyph>
<glyph name="zero.subs" format="1">
	<unicode hex="2080"/>
	<advance width="600"/>
	<outline>
		<contour>
			<point x="252" y="-202" type="curve" smooth="yes"/>
			<point x="368" y="-202"/>
			<point x="448" y="-94"/>
			<point x="448" y="52" type="curve" smooth="yes"/>
			<point x="448" y="152"/>
			<point x="382" y="214"/>
			<point x="304" y="214" type="curve" smooth="yes"/>
			<point x="188" y="214"/>
			<point x="108" y="106"/>
			<point x="108" y="-40" type="curve" smooth="yes"/>
			<point x="108" y="-140"/>
			<point x="174" y="-202"/>
		</contour>
		<contour>
			<point x="262" y="-108" type="curve" smooth="yes"/>
			<point x="234" y="-108"/>
			<point x="220" y="-82"/>
			<point x="220" y="-38" type="curve" smooth="yes"/>
			<point x="220" y="60"/>
			<point x="254" y="120"/>
			<point x="294" y="120" type="curve" smooth="yes"/>
			<point x="322" y="120"/>
			<point x="336" y="94"/>
			<point x="336" y="50" type="curve" smooth="yes"/>
			<point x="336" y="-48"/>
			<point x="302" y="-108"/>
		</contour>
	</outline>
</glyph>
<glyph name="three.subs" format="1">
	<unicode hex="2083"/>
	<advance width="600"/>
	<outline>
		<contour>
			<point x="256" y="-202" type="curve" smooth="yes"/>
			<point x="342" y="-202"/>
			<point x="412" y="-156"/>
			<point x="412" y="-76" type="curve" smooth="yes"/>
			<point x="412" y="-42"/>
			<point x="392" y="-12"/>
			<point x="358" y="8" type="curve"/>
			<point x="412" y="30"/>
			<point x="434" y="64"/>
			<point x="434" y="114" type="curve" smooth="yes"/>
			<point x="434" y="172"/>
			<point x="382" y="212"/>
			<point x="309" y="212" type="curve" smooth="yes"/>
			<point x="260" y="212"/>
			<point x="222" y="204"/>
			<point x="174" y="176" type="curve"/>
			<point x="222" y="100" type="line"/>
			<point x="248" y="118"/>
			<point x="260" y="122"/>
			<point x="282" y="122" type="curve" smooth="yes"/>
			<point x="304" y="122"/>
			<point x="318" y="110"/>
			<point x="318" y="93" type="curve" smooth="yes"/>
			<point x="318" y="68"/>
			<point x="305" y="43"/>
			<point x="236" y="43" type="curve"/>
			<point x="222" y="-26" type="line"/>
			<point x="287" y="-26"/>
			<point x="300" y="-42"/>
			<point x="300" y="-70" type="curve" smooth="yes"/>
			<point x="300" y="-94"/>
			<point x="280" y="-110"/>
			<point x="245" y="-110" type="curve" smooth="yes"/>
			<point x="218" y="-110"/>
			<point x="196" y="-96"/>
			<point x="178" y="-68" type="curve"/>
			<point x="104" y="-122" type="line"/>
			<point x="134" y="-170"/>
			<point x="182" y="-202"/>
		</contour>
	</outline>
</glyph>
<glyph name="won" format="2">
	<unicode hex="20A9"/>
	<advance width="600"/>
	<outline>
		<contour>
			<point x="48" y="0" type="line"/>
			<point x="214" y="0" type="line"/>
			<point x="302" y="348" type="line"/>
			<point x="333" y="475" type="line"/>
			<point x="337" y="475" type="line"/>
			<point x="320" y="348" type="line"/>
			<point x="274" y="0" type="line"/>
			<point x="444" y="0" type="line"/>
			<point x="632" y="634" type="line"/>
			<point x="494" y="634" type="line"/>
			<point x="416" y="290" type="line"/>
			<point x="377" y="118" type="line"/>
			<point x="373" y="118" type="line"/>
			<point x="394" y="290" type="line"/>
			<point x="426" y="594" type="line"/>
			<point x="300" y="594" type="line"/>
			<point x="216" y="290" type="line"/>
			<point x="171" y="118" type="line"/>
			<point x="167" y="118" type="line"/>
			<point x="196" y="290" type="line"/>
			<point x="252" y="634" type="line"/>
			<point x="102" y="634" type="line"/>
		</contour>
		<contour>
			<point x="8" y="288" type="line"/>
			<point x="588" y="288" type="line"/>
			<point x="601" y="352" type="line"/>
			<point x="90" y="352" type="line"/>
			<point x="20" y="346" type="line"/>
		</contour>
	</outline>
</glyph>
<glyph name="cedi" format="2">
	<unicode hex="20B5"/>
	<advance width="600"/>
	<outline>
		<contour>
			<point x="297" y="-12" type="curve" smooth="yes"/>
			<point x="385" y="-12"/>
			<point x="465" y="16"/>
			<point x="531" y="75" type="curve"/>
			<point x="460" y="177" type="line"/>
			<point x="423" y="147"/>
			<point x="380" y="121"/>
			<point x="329" y="121" type="curve" smooth="yes"/>
			<point x="272" y="121"/>
			<point x="234" y="160"/>
			<point x="234" y="250" type="curve" smooth="yes"/>
			<point x="234" y="390"/>
			<point x="309" y="521"/>
			<point x="409" y="521" type="curve" smooth="yes"/>
			<point x="455" y="521"/>
			<point x="482" y="500"/>
			<point x="504" y="470" type="curve"/>
			<point x="603" y="552" type="line"/>
			<point x="567" y="604"/>
			<point x="516" y="647"/>
			<point x="426" y="647" type="curve" smooth="yes"/>
			<point x="230" y="647"/>
			<point x="72" y="498"/>
			<point x="72" y="237" type="curve" smooth="yes"/>
			<point x="72" y="75"/>
			<point x="168" y="-12"/>
		</contour>
		<contour>
			<point x="230" y="-110" type="line"/>
			<point x="316" y="-110" type="line"/>
			<point x="485" y="734" type="line"/>
			<point x="399" y="734" type="line"/>
		</contour>
	</outline>
</glyph>
<glyph name="arrowboth" format="2">
	<unicode hex="2194"/>
	<advance width="600"/>
	<outline>
		<contour>
			<point x="612" y="254" type="line"/>
			<point x="432" y="480" type="line"/>
			<point x="348" y="416" type="line"/>
			<point x="432" y="316" type="line"/>
			<point x="168" y="316" type="line"/>
			<point x="252" y="416" type="line"/>
			<point x="168" y="480" type="line"/>
			<point x="-12" y="254" type="line"/>
			<point x="-12" y="250" type="line"/>
			<point x="168" y="24" type="line"/>
			<point x="252" y="88" type="line"/>
			<point x="168" y="188" type="line"/>
			<point x="432" y="188" type="line"/>
			<point x="348" y="88" type="line"/>
			<point x="432" y="24" type="line"/>
			<point x="612" y="250" type="line"/>
		</contour>
	</outline>
</glyph>
<glyph name="arrowdownleft" format="2">
	<unicode hex="2199"/>
	<advance width="600"/>
	<outline>
		<contour>
			<point x="105" y="54" type="line"/>
			<point x="491" y="62" type="line"/>
			<point x="484" y="176" type="line"/>
			<point x="301" y="163" type="line"/>
			<point x="542" y="403" type="line"/>
			<point x="451" y="494" type="line"/>
			<point x="211" y="253" type="line"/>
			<point x="224" y="436" type="line"/>
			<point x="110" y="443" type="line"/>
			<point x="102" y="57" type="line"/>
		</contour>
	</outline>
</glyph>
<glyph name="partialdiff" format="1">
	<unicode hex="2202"/>
	<advance width="600"/>
	<outline>
		<contour>
			<point x="219" y="-12" type="curve" smooth="yes"/>
			<point x="417" y="-12"/>
			<point x="569" y="195"/>
			<point x="569" y="437" type="curve" smooth="yes"/>
			<point x="569" y="609"/>
			<point x="484" y="670"/>
			<point x="369" y="670" type="curve" smooth="yes"/>
			<point x="315" y="670"/>
			<point x="254" y="652"/>
			<point x="200" y="617" type="curve"/>
			<point x="254" y="515" type="line"/>
			<point x="279" y="532"/>
			<point x="301" y="544"/>
			<point x="335" y="544" type="curve" smooth="yes"/>
			<point x="387" y="544"/>
			<point x="419" y="511"/>
			<point x="419" y="437" type="curve" smooth="yes"/>
			<point x="419" y="272"/>
			<point x="335" y="115"/>
			<point x="245" y="115" type="curve" smooth="yes"/>
			<point x="207" y="115"/>
			<point x="182" y="137"/>
			<point x="182" y="187" type="curve" smooth="yes"/>
			<point x="182" y="256"/>
			<point x="228" y="300"/>
			<point x="289" y="300" type="curve" smooth="yes"/>
			<point x="336" y="300"/>
			<point x="372" y="262"/>
			<point x="389" y="216" type="curve"/>
			<point x="429" y="335" type="line"/>
			<point x="406" y="382"/>
			<point x="345" y="419"/>
			<point x="276" y="419" type="curve" smooth="yes"/>
			<point x="134" y="419"/>
			<point x="27" y="322"/>
			<point x="27" y="175" type="curve" smooth="yes"/>
			<point x="27" y="45"/>
			<point x="104" y="-12"/>
		</contour>
	</outline>
</glyph>
<glyph name="floorright" format="1">
	<unicode hex="231F"/>
	<advance width="600"/>
	<outline>
		<contour>
			<point x="34" y="-58" type="line"/>
			<point x="332" y="-58" type="line"/>
			<point x="472" y="634" type="line"/>
			<point x="352" y="634" type="line"/>
			<point x="230" y="26" type="line"/>
			<point x="50" y="26" type="line"/>
		</contour>
	</outline>
</glyph>
<glyph name="heavyquaddashhorzbxd" format="1">
	<unicode hex="2509"/>
	<advance width="600"/>
	<outline>
		<contour>
			<point x="469" y="140" type="line"/>
			<point x="581" y="140" type="line"/>
			<point x="581" y="460" type="line"/>
			<point x="469" y="460" type="line"/>
		</contour>
		<contour>
			<point x="319" y="140" type="line"/>
			<point x="431" y="140" type="line"/>
			<point x="431" y="460" type="line"/>
			<point x="319" y="460" type="line"/>
		</contour>
		<contour>
			<point x="169" y="140" type="line"/>
			<point x="281" y="140" type="line"/>
			<point x="281" y="460" type="line"/>
			<point x="169" y="460" type="line"/>
		</contour>
		<contour>
			<point x="19" y="140" type="line"/>
			<point x="131" y="140" type="line"/>
			<point x="131" y="460" type="line"/>
			<point x="19" y="460" type="line"/>
		</contour>
	</outline>
</glyph>
<glyph name="heavyquaddashvertbxd" format="1">
	<unicode hex="250B"/>
	<advance width="600"/>
	<outline>
		<contour>
			<point x="140" y="638" type="line"/>
			<point x="460" y="638" type="line"/>
			<point x="460" y="863" type="line"/>
			<point x="140" y="863" type="line"/>
		</contour>
		<contour>
			<point x="140" y="338" type="line"/>
			<point x="460" y="338" type="line"/>
			<point x="460" y="563" type="line"/>
			<point x="140" y="563" type="line"/>
		</contour>
		<contour>
			<point x="140" y="38" type="line"/>
			<point x="460" y="38" type="line"/>
			<point x="460" y="263" type="line"/>
			<point x="140" y="263" type="line"/>
		</contour>
		<contour>
			<point x="140" y="-263" type="line"/>
			<point x="460" y="-263" type="line"/>
			<point x="460" y="-38" type="line"/>
			<point x="140" y="-38" type="line"/>
		</contour>
	</outline>
</glyph>
<glyph name="vertheavyrightlightbxd" format="1">
	<unicode hex="2520"/>
	<advance width="600"/>
	<outline>
		<contour>
			<point x="680" y="220" type="line"/>
			<point x="680" y="380" type="line"/>
			<point x="460" y="380" type="line"/>
			<point x="460" y="1000" type="line"/>
			<point x="140" y="1000" type="line"/>
			<point x="140" y="-400" type="line"/>
			<point x="460" y="-400" type="line"/>
			<point x="460" y="220" type="line"/>
		</contour>
	</outline>
</glyph>
<glyph name="uplightleftdnheavybxd" format="1">
	<unicode hex="252A"/>
	<advance width="600"/>
	<outline>
		<contour>
			<point x="460" y="-400" type="line"/>
			<point x="460" y="460" type="line"/>
			<point x="380" y="460" type="line"/>
			<point x="380" y="1000" type="line"/>
			<point x="220" y="1000" type="line"/>
			<point x="220" y="460" type="line"/>
			<point x="-80" y="460" type="line"/>
			<point x="-80" y="140" type="line"/>
			<point x="140" y="140" type="line"/>
			<point x="140" y="-400" type="line"/>
		</contour>
	</outline>
</glyph>
<glyph name="rightheavyleftdnlightbxd" format="1">
	<unicode hex="252E"/>
	<advance width="600"/>
	<outline>
		<contour>
			<point x="680" y="140" type="line"/>
			<point x="680" y="460" type="line"/>
			<point x="220" y="460" type="line"/>
			<point x="220" y="380" type="line"/>
			<point x="-80" y="380" type="line"/>
			<point x="-80" y="220" type="line"/>
			<point x="220" y="220" type="line"/>
			<point x="220" y="-400" type="line"/>
			<point x="380" y="-400" type="line"/>
			<point x="380" y="140" type="line"/>
		</contour>
	</outline>
</glyph>
<glyph name="uplighthorzheavybxd" format="2">
	<unicode hex="2537"/>
	<advance width="600"/>
	<outline>
		<contour>
			<point x="680" y="140" type="line"/>
			<point x="680" y="460" type="line"/>
			<point x="380" y="460" type="line"/>
			<point x="380" y="1000" type="line"/>
			<point x="220" y="1000" type="line"/>
			<point x="220" y="460" type="line"/>
			<point x="-80" y="460" type="line"/>
			<point x="-80" y="140" type="line"/>
		</contour>
	</outline>
</glyph>
<glyph name="heavyrightbxd" format="1">
	<unicode hex="257A"/>
	<advance width="600"/>
	<outline>
		<contour>
			<point x="220" y="140" type="line"/>
			<point x="680" y="140" type="line"/>
			<point x="680" y="460" type="line"/>
			<point x="220" y="460" type="line"/>
		</contour>
	</outline>
</glyph>
<glyph name="trianglesmallupwhite" format="1">
	<unicode hex="25B5"/>
	<advance width="600"/>
	<outline>
		<contour>
			<point x="85" y="92" type="line"/>
			<point x="515" y="92" type="line"/>
			<point x="515" y="96" type="line"/>
			<point x="302" y="483" type="line"/>
			<point x="298" y="483" type="line"/>
			<point x="85" y="96" type="line"/>
		</contour>
		<contour>
			<point x="215" y="167" type="line"/>
			<point x="300" y="338" type="line"/>
			<point x="385" y="167" type="line"/>
		</contour>
	</outline>
</glyph>
<glyph name="trianglerightwhite" format="2">
	<unicode hex="25B7"/>
	<advance width="600"/>
	<outline>
		<contour>
			<point x="69" y="106" type="line"/>
			<point x="73" y="106" type="line"/>
			<point x="551" y="339" type="line"/>
			<point x="551" y="343" type="line"/>
			<point x="73" y="575" type="line"/>
			<point x="69" y="575" type="line"/>
		</contour>
		<contour>
			<point x="154" y="245" type="line"/>
			<point x="154" y="436" type="line"/>
			<point x="365" y="341" type="line"/>
		</contour>
	</outline>
</glyph>
<glyph name="pointerblackright" format="2">
	<unicode hex="25BA"/>
	<advance width="600"/>
	<outline>
		<contour>
			<point x="11" y="106" type="line"/>
			<point x="15" y="106" type="line"/>
			<point x="629" y="339" type="line"/>
			<point x="629" y="343" type="line"/>
			<point x="15" y="575" type="line"/>
			<point x="11" y="575" type="line"/>
		</contour>
	</outline>
</glyph>
<glyph name="trianglesmalldownwhite" format="1">
	<unicode hex="25BF"/>
	<advance width="600"/>
	<outline>
		<contour>
			<point x="298" y="41" type="line"/>
			<point x="302" y="41" type="line"/>
			<point x="515" y="428" type="line"/>
			<point x="515" y="432" type="line"/>
			<point x="85" y="432" type="line"/>
			<point x="85" y="428" type="line"/>
		</contour>
		<contour>
			<point x="300" y="186" type="line"/>
			<point x="215" y="357" type="line"/>
			<point x="385" y="357" type="line"/>
		</contour>
	</outline>
</glyph>
<glyph name="triangleleftblack" format="2">
	<unicode hex="25C0"/>
	<advance width="600"/>
	<outline>
		<contour>
			<point x="527" y="106" type="line"/>
			<point x="531" y="106" type="line"/>
			<point x="531" y="575" type="line"/>
			<point x="527" y="575" type="line"/>
			<point x="49" y="343" type="line"/>
			<point x="49" y="339" type="line"/>
		</contour>
	</outline>
</glyph>
<glyph name="diamondblack" format="2">
	<unicode hex="25C6"/>
	<advance width="600"/>
	<outline>
		<contour>
			<point x="300" y="53" type="line"/>
			<point x="578" y="332" type="line"/>
			<point x="300" y="610" type="line"/>
			<point x="22" y="332" type="line"/>
		</contour>
	</outline>
</glyph>
<glyph name="coffee" format="2">
	<unicode hex="2615"/>
	<advance width="600"/>
	<outline>
		<contour>
			<point x="243" y="26" type="curve" smooth="yes"/>
			<point x="326" y="26"/>
			<point x="398" y="58"/>
			<point x="448" y="131" type="curve"/>
			<point x="548" y="131"/>
			<point x="643" y="208"/>
			<point x="643" y="320" type="curve" smooth="yes"/>
			<point x="643" y="421"/>
			<point x="591" y="470"/>
			<point x="511" y="487" type="curve"/>
			<point x="485" y="582"/>
			<point x="389" y="634"/>
			<point x="243" y="634" type="curve" smooth="yes"/>
			<point x="68" y="634"/>
			<point x="-37" y="561"/>
			<point x="-37" y="428" type="curve" smooth="yes"/>
			<point x="-37" y="152"/>
			<point x="73" y="26"/>
		</contour>
		<contour>
			<point x="243" y="89" type="curve" smooth="yes"/>
			<point x="117" y="89"/>
			<point x="31" y="187"/>
			<point x="31" y="420" type="curve" smooth="yes"/>
			<point x="31" y="517"/>
			<point x="108" y="575"/>
			<point x="243" y="575" type="curve" smooth="yes"/>
			<point x="379" y="575"/>
			<point x="454" y="521"/>
			<point x="454" y="430" type="curve"/>
			<point x="529" y="430"/>
			<point x="565" y="384"/>
			<point x="565" y="320" type="curve" smooth="yes"/>
			<point x="565" y="248"/>
			<point x="515" y="186"/>
			<point x="406" y="186" type="curve"/>
			<point x="374" y="119"/>
			<point x="313" y="89"/>
		</contour>
		<contour>
			<point x="243" y="331" type="curve" smooth="yes"/>
			<point x="355" y="331"/>
			<point x="404" y="361"/>
			<point x="436" y="410" type="curve"/>
			<point x="416" y="470"/>
			<point x="347" y="507"/>
			<point x="243" y="507" type="curve" smooth="yes"/>
			<point x="139" y="507"/>
			<point x="69" y="471"/>
			<point x="49" y="410" type="curve"/>
			<point x="82" y="361"/>
			<point x="131" y="331"/>
		</contour>
		<contour>
			<point x="428" y="255" type="curve"/>
			<point x="465" y="255"/>
			<point x="496" y="276"/>
			<point x="496" y="314" type="curve" smooth="yes"/>
			<point x="496" y="347"/>
			<point x="480" y="357"/>
			<point x="447" y="357" type="curve"/>
			<point x="445" y="322"/>
			<point x="439" y="290"/>
		</contour>
		<contour>
			<point x="292" y="420" type="curve"/>
			<point x="292" y="420" type="line"/>
			<point x="242" y="389"/>
			<point x="217" y="380"/>
			<point x="187" y="380" type="curve" smooth="yes"/>
			<point x="160" y="380"/>
			<point x="145" y="390"/>
			<point x="145" y="401" type="curve" smooth="yes"/>
			<point x="145" y="410"/>
			<point x="152" y="416"/>
			<point x="170" y="420" type="curve"/>
			<point x="170" y="420" type="line"/>
			<point x="152" y="424"/>
			<point x="145" y="430"/>
			<point x="145" y="438" type="curve" smooth="yes"/>
			<point x="145" y="450"/>
			<point x="160" y="459"/>
			<point x="187" y="459" type="curve" smooth="yes"/>
			<point x="217" y="459"/>
			<point x="242" y="451"/>
		</contour>
		<contour>
			<point x="297" y="420" type="curve"/>
			<point x="297" y="420" type="line"/>
			<point x="321" y="434"/>
			<point x="340" y="437"/>
			<point x="349" y="437" type="curve" smooth="yes"/>
			<point x="361" y="437"/>
			<point x="371" y="431"/>
			<point x="371" y="420" type="curve" smooth="yes"/>
			<point x="371" y="408"/>
			<point x="361" y="403"/>
			<point x="349" y="403" type="curve" smooth="yes"/>
			<point x="340" y="403"/>
			<point x="321" y="405"/>
		</contour>
	</outline>
</glyph>
<glyph name="sun" format="2">
	<unicode hex="263C"/>
	<advance width="600"/>
	<outline>
		<contour>
			<point x="300" y="112" type="curve" smooth="yes"/>
			<point x="419" y="112"/>
			<point x="526" y="218"/>
			<point x="526" y="330" type="curve" smooth="yes"/>
			<point x="526" y="442"/>
			<point x="419" y="548"/>
			<point x="300" y="548" type="curve" smooth="yes"/>
			<point x="181" y="548"/>
			<point x="74" y="442"/>
			<point x="74" y="330" type="curve" smooth="yes"/>
			<point x="74" y="218"/>
			<point x="181" y="112"/>
		</contour>
		<contour>
			<point x="300" y="209" type="curve" smooth="yes"/>
			<point x="231" y="209"/>
			<point x="181" y="259"/>
			<point x="181" y="330" type="curve" smooth="yes"/>
			<point x="181" y="401"/>
			<point x="231" y="451"/>
			<point x="300" y="451" type="curve" smooth="yes"/>
			<point x="369" y="451"/>
			<point x="419" y="401"/>
			<point x="419" y="330" type="curve" smooth="yes"/>
			<point x="419" y="259"/>
			<point x="369" y="209"/>
		</contour>
		<contour>
			<point x="242" y="518" type="line"/>
			<point x="358" y="518" type="line"/>
			<point x="358" y="648" type="line"/>
			<point x="242" y="648" type="line"/>
		</contour>
		<contour>
			<point x="131" y="414" type="line"/>
			<point x="210" y="493" type="line"/>
			<point x="108" y="597" type="line"/>
			<point x="29" y="518" type="line"/>
		</contour>
		<contour>
			<point x="467" y="416" type="line"/>
			<point x="571" y="518" type="line"/>
			<point x="492" y="597" type="line"/>
			<point x="388" y="495" type="line"/>
		</contour>
		<contour>
			<point x="-14" y="274" type="line"/>
			<point x="135" y="274" type="line"/>
			<point x="116" y="386" type="line"/>
			<point x="-14" y="386" type="line"/>
		</contour>
		<contour>
			<point x="484" y="274" type="line"/>
			<point x="614" y="274" type="line"/>
			<point x="614" y="386" type="line"/>
			<point x="484" y="386" type="line"/>
		</contour>
		<contour>
			<point x="108" y="61" type="line"/>
			<point x="212" y="163" type="line"/>
			<point x="133" y="242" type="line"/>
			<point x="29" y="140" type="line"/>
		</contour>
		<contour>
			<point x="492" y="61" type="line"/>
			<point x="571" y="140" type="line"/>
			<point x="469" y="244" type="line"/>
			<point x="390" y="165" type="line"/>
		</contour>
		<contour>
			<point x="242" y="12" type="line"/>
			<point x="358" y="12" type="line"/>
			<point x="358" y="142" type="line"/>
			<point x="242" y="142" type="line"/>
		</contour>
	</outline>
</glyph>
<glyph name="heart" format="2">
	<unicode hex="2665"/>
	<advance width="600"/>
	<outline>
		<contour>
			<point x="302" y="-12" type="line"/>
			<point x="547" y="237"/>
			<point x="602" y="356"/>
			<point x="602" y="502" type="curve" smooth="yes"/>
			<point x="602" y="628"/>
			<point x="535" y="700"/>
			<point x="450" y="700" type="curve" smooth="yes"/>
			<point x="382" y="700"/>
			<point x="330" y="670"/>
			<point x="302" y="580" type="curve"/>
			<point x="298" y="580" type="line"/>
			<point x="270" y="670"/>
			<point x="218" y="700"/>
			<point x="150" y="700" type="curve" smooth="yes"/>
			<point x="65" y="700"/>
			<point x="-2" y="628"/>
			<point x="-2" y="502" type="curve" smooth="yes"/>
			<point x="-2" y="356"/>
			<point x="53" y="237"/>
			<point x="298" y="-12" type="curve"/>
		</contour>
	</outline>
</glyph>
<glyph name="squareshadow" format="2">
	<unicode hex="2752"/>
	<advance width="600"/>
	<outline>
		<contour>
			<point x="49" y="79" type="line"/>
			<point x="481" y="79" type="line"/>
			<point x="551" y="151" type="line"/>
			<point x="551" y="581" type="line"/>
			<point x="125" y="581" type="line"/>
			<point x="49" y="515" type="line"/>
		</contour>
		<contour>
			<point x="114" y="140" type="line"/>
			<point x="114" y="501" type="line"/>
			<point x="467" y="501" type="line"/>
			<point x="467" y="140" type="line"/>
		</contour>
	</outline>
</glyph>
<glyph name="bracketrightwhite" format="1">
	<unicode hex="27E7"/>
	<advance width="600"/>
	<outline>
		<contour>
			<point x="14" y="-152" type="line"/>
			<point x="370" y="-152" type="line"/>
			<point x="544" y="708" type="line"/>
			<point x="188" y="708" type="line"/>
			<point x="172" y="624" type="line"/>
			<point x="282" y="624" type="line"/>
			<point x="142" y="-68" type="line"/>
			<point x="30" y="-68" type="line"/>
		</contour>
		<contour>
			<point x="230" y="-68" type="line"/>
			<point x="370" y="624" type="line"/>
			<point x="428" y="624" type="line"/>
			<point x="288" y="-68" type="line"/>
		</contour>
	</outline>
</glyph>
<glyph name="uniE0A1" format="1">
	<unicode hex="E0A1"/>
	<advance width="600"/>
	<outline>
		<contour>
			<point x="61" y="440" type="line"/>
			<point x="403" y="440" type="line"/>
			<point x="403" y="553" type="line"/>
			<point x="202" y="553" type="line"/>
			<point x="202" y="920" type="line"/>
			<point x="61" y="920" type="line"/>
		</contour>
		<contour>
			<point x="150" y="-166" type="line"/>
			<point x="291" y="-166" type="line"/>
			<point x="291" y="-44" type="line"/>
			<point x="250" y="175" type="line"/>
			<point x="254" y="175" type="line"/>
			<point x="379" y="-166" type="line"/>
			<point x="539" y="-166" type="line"/>
			<point x="539" y="312" type="line"/>
			<point x="398" y="312" type="line"/>
			<point x="398" y="192" type="line"/>
			<point x="439" y="-29" type="line"/>
			<point x="435" y="-29" type="line"/>
			<point x="309" y="312" type="line"/>
			<point x="150" y="312" type="line"/>
		</contour>
	</outline>
</glyph>
<glyph name="poop" format="2">
	<unicode hex="1F4A9"/>
	<advance width="600"/>
	<outline>
		<contour>
			<point x="300" y="14" type="curve" smooth="yes"/>
			<point x="522" y="14"/>
			<point x="618" y="41"/>
			<point x="618" y="160" type="curve" smooth="yes"/>
			<point x="618" y="224"/>
			<point x="588" y="262"/>
			<point x="523" y="278" type="curve"/>
			<point x="548" y="296"/>
			<point x="560" y="324"/>
			<point x="560" y="368" type="curve" smooth="yes"/>
			<point x="560" y="440"/>
			<point x="513" y="478"/>
			<point x="447" y="490" type="curve"/>
			<point x="461" y="504"/>
			<point x="469" y="518"/>
			<point x="469" y="544" type="curve" smooth="yes"/>
			<point x="469" y="598"/>
			<point x="419" y="636"/>
			<point x="320" y="662" type="curve"/>
			<point x="260" y="600"/>
			<point x="131" y="642"/>
			<point x="131" y="542" type="curve" smooth="yes"/>
			<point x="131" y="514"/>
			<point x="141" y="502"/>
			<point x="153" y="490" type="curve"/>
			<point x="87" y="478"/>
			<point x="40" y="440"/>
			<point x="40" y="368" type="curve" smooth="yes"/>
			<point x="40" y="324"/>
			<point x="52" y="296"/>
			<point x="77" y="278" type="curve"/>
			<point x="12" y="262"/>
			<point x="-18" y="224"/>
			<point x="-18" y="160" type="curve" smooth="yes"/>
			<point x="-18" y="41"/>
			<point x="78" y="14"/>
		</contour>
		<contour>
			<point x="300" y="110" type="curve" smooth="yes"/>
			<point x="225" y="110"/>
			<point x="164" y="142"/>
			<point x="158" y="224" type="curve"/>
			<point x="442" y="224" type="line"/>
			<point x="436" y="142"/>
			<point x="375" y="110"/>
		</contour>
		<contour>
			<point x="144" y="312" type="line"/>
			<point x="146" y="398"/>
			<point x="170" y="432"/>
			<point x="212" y="432" type="curve" smooth="yes"/>
			<point x="254" y="432"/>
			<point x="278" y="398"/>
			<point x="280" y="312" type="curve"/>
			<point x="248" y="310" type="line"/>
			<point x="246" y="354"/>
			<point x="236" y="372"/>
			<point x="212" y="372" type="curve" smooth="yes"/>
			<point x="188" y="372"/>
			<point x="178" y="354"/>
			<point x="176" y="310" type="curve"/>
		</contour>
		<contour>
			<point x="320" y="312" type="line"/>
			<point x="322" y="398"/>
			<point x="346" y="432"/>
			<point x="388" y="432" type="curve" smooth="yes"/>
			<point x="430" y="432"/>
			<point x="454" y="398"/>
			<point x="456" y="312" type="curve"/>
			<point x="424" y="310" type="line"/>
			<point x="422" y="354"/>
			<point x="412" y="372"/>
			<point x="388" y="372" type="curve" smooth="yes"/>
			<point x="364" y="372"/>
			<point x="354" y="354"/>
			<point x="352" y="310" type="curve"/>
		</contour>
	</outline>
</glyph>
<glyph name="D" format="1">
	<advance width="600"/>
	<outline>
		<contour>
			<point x="8" y="0" type="line"/>
			<point x="222" y="0" type="line" smooth="yes"/>
			<point x="416" y="0"/>
			<point x="568" y="130"/>
			<point x="568" y="394" type="curve" smooth="yes"/>
			<point x="568" y="570"/>
			<point x="462" y="650"/>
			<point x="290" y="650" type="curve" smooth="yes"/>
			<point x="138" y="650" type="line"/>
		</contour>
		<contour>
			<point x="194" y="128" type="line"/>
			<point x="272" y="522" type="line"/>
			<point x="286" y="522" type="line" smooth="yes"/>
			<point x="352" y="522"/>
			<point x="404" y="486"/>
			<point x="404" y="384" type="curve" smooth="yes"/>
			<point x="404" y="196"/>
			<point x="316" y="128"/>
			<point x="218" y="128" type="curve" smooth="yes"/>
		</contour>
		<contour>
			<point name="aboveUC" x="370" y="670" type="move"/>
		</contour>
		<contour>
			<point name="baseLC" x="230" y="0" type="move"/>
		</contour>
		<contour>
			<point name="belowLC" x="230" y="-20" type="move"/>
		</contour>
	</outline>
</glyph>
<glyph name="Eng" format="1">
	<advance width="600"/>
	<outline>
		<contour>
			<point x="320" y="-12" type="curve" smooth="yes"/>
			<point x="474" y="-12"/>
			<point x="570" y="190"/>
			<point x="570" y="426" type="curve" smooth="yes"/>
			<point x="570" y="596"/>
			<point x="508" y="662"/>
			<point x="418" y="662" type="curve" smooth="yes"/>
			<point x="364" y="662"/>
			<point x="310" y="638"/>
			<point x="266" y="592" type="curve"/>
			<point x="278" y="650" type="line"/>
			<point x="126" y="650" type="line"/>
			<point x="-4" y="0" type="line"/>
			<point x="156" y="0" type="line"/>
			<point x="245" y="457" type="line"/>
			<point x="286" y="502"/>
			<point x="322" y="524"/>
			<point x="353" y="524" type="curve" smooth="yes"/>
			<point x="386" y="524"/>
			<point x="406" y="493"/>
			<point x="406" y="416" type="curve" smooth="yes"/>
			<point x="406" y="272"/>
			<point x="354" y="126"/>
			<point x="300" y="126" type="curve" smooth="yes"/>
			<point x="289" y="126"/>
			<point x="279" y="130"/>
			<point x="273" y="134" type="curve"/>
			<point x="215" y="7" type="line"/>
			<point x="235" y="-6"/>
			<point x="282" y="-12"/>
		</contour>
		<contour>
			<point name="aboveUC" x="380" y="670" type="move"/>
		</contour>
		<contour>
			<point name="belowLC" x="260" y="-20" type="move"/>
		</contour>
	</outline>
</glyph>
<glyph name="Eth" format="1">
	<advance width="600"/>
	<outline>
		<contour>
			<point x="330" y="298" type="curve"/>
			<point x="346" y="374" type="line"/>
			<point x="84" y="374" type="line"/>
			<point x="12" y="368" type="line"/>
			<point x="-2" y="298" type="line"/>
			<point x="-2" y="298"/>
			<point x="330" y="298"/>
		</contour>
		<component base="D"/>
		<contour>
			<point name="aboveUC" x="370" y="670" type="move"/>
		</contour>
		<contour>
			<point name="belowLC" x="230" y="-20" type="move"/>
		</contour>
	</outline>
</glyph>
<glyph name="L" format="1">
	<advance width="600"/>
	<outline>
		<contour>
			<point x="52" y="0" type="line"/>
			<point x="492" y="0" type="line"/>
			<point x="518" y="134" type="line"/>
			<point x="238" y="134" type="line"/>
			<point x="342" y="650" type="line"/>
			<point x="182" y="650" type="line"/>
		</contour>
		<contour>
			<point name="aboveUC" x="266" y="670" type="move"/>
		</contour>
		<contour>
			<point name="baseLC" x="290" y="0" type="move"/>
		</contour>
		<contour>
			<point name="belowLC" x="280" y="-20" type="move"/>
		</contour>
		<contour>
			<point name="center" x="198" y="350" type="move"/>
		</contour>
	</outline>
</glyph>
<glyph name="Tbar" format="1">
	<advance width="600"/>
	<outline>
		<contour>
			<point x="82" y="280" type="line"/>
			<point x="506" y="280" type="line"/>
			<point x="522" y="356" type="line"/>
			<point x="168" y="356" type="line"/>
			<point x="96" y="350" type="line"/>
		</contour>
		<component base="T"/>
		<contour>
			<point name="aboveUC" x="370" y="670" type="move"/>
		</contour>
		<contour>
			<point name="belowLC" x="236" y="-20" type="move"/>
		</contour>
	</outline>
</glyph>
<glyph name="Thorn" format="1">
	<advance width="600"/>
	<outline>
		<contour>
			<point x="8" y="0" type="line"/>
			<point x="168" y="0" type="line"/>
			<point x="190" y="116" type="line"/>
			<point x="260" y="116" type="line" smooth="yes"/>
			<point x="422" y="116"/>
			<point x="568" y="186"/>
			<point x="568" y="376" type="curve" smooth="yes"/>
			<point x="568" y="506"/>
			<point x="474" y="554"/>
			<point x="356" y="554" type="curve" smooth="yes"/>
			<point x="278" y="554" type="line"/>
			<point x="298" y="650" type="line"/>
			<point x="138" y="650" type="line"/>
		</contour>
		<contour>
			<point x="216" y="242" type="line"/>
			<point x="252" y="428" type="line"/>
			<point x="324" y="428" type="line" smooth="yes"/>
			<point x="378" y="428"/>
			<point x="410" y="404"/>
			<point x="410" y="352" type="curve" smooth="yes"/>
			<point x="410" y="280"/>
			<point x="362" y="242"/>
			<point x="278" y="242" type="curve" smooth="yes"/>
		</contour>
	</outline>
</glyph>
<glyph name="Uogonek" format="1">
	<advance width="600"/>
	<outline>
		<contour>
			<point x="216" y="-228" type="curve" smooth="yes"/>
			<point x="254" y="-228"/>
			<point x="304" y="-216"/>
			<point x="336" y="-194" type="curve"/>
			<point x="306" y="-118" type="line"/>
			<point x="294" y="-124"/>
			<point x="286" y="-126"/>
			<point x="276" y="-126" type="curve" smooth="yes"/>
			<point x="254" y="-126"/>
			<point x="236" y="-114"/>
			<point x="236" y="-94" type="curve" smooth="yes"/>
			<point x="236" y="-65"/>
			<point x="269" y="-34"/>
			<point x="328" y="-10" type="curve" smooth="yes"/>
			<point x="455" y="41"/>
			<point x="500" y="118"/>
			<point x="530" y="268" type="curve" smooth="yes"/>
			<point x="606" y="650" type="line"/>
			<point x="450" y="650" type="line"/>
			<point x="376" y="276" type="line" smooth="yes"/>
			<point x="352" y="156"/>
			<point x="324" y="126"/>
			<point x="268" y="126" type="curve" smooth="yes"/>
			<point x="226" y="126"/>
			<point x="204" y="154"/>
			<point x="204" y="208" type="curve" smooth="yes"/>
			<point x="204" y="234"/>
			<point x="211" y="261"/>
			<point x="216" y="288" type="curve" smooth="yes"/>
			<point x="288" y="650" type="line"/>
			<point x="128" y="650" type="line"/>
			<point x="60" y="308" type="line" smooth="yes"/>
			<point x="52" y="270"/>
			<point x="48" y="236"/>
			<point x="48" y="196" type="curve" smooth="yes"/>
			<point x="48" y="78"/>
			<point x="106" y="6"/>
			<point x="204" y="-8" type="curve"/>
			<point x="166" y="-32"/>
			<point x="112" y="-86"/>
			<point x="112" y="-146" type="curve" smooth="yes"/>
			<point x="112" y="-198"/>
			<point x="154" y="-228"/>
		</contour>
		<contour>
			<point name="aboveUC" x="370" y="670" type="move"/>
		</contour>
	</outline>
</glyph>
<glyph name="V" format="1">
	<advance width="600"/>
	<outline>
		<contour>
			<point x="129" y="0" type="line"/>
			<point x="323" y="0" type="line"/>
			<point x="657" y="650" type="line"/>
			<point x="481" y="650" type="line"/>
			<point x="349" y="346" type="line" smooth="yes"/>
			<point x="328" y="298"/>
			<point x="289" y="204"/>
			<point x="263" y="140" type="curve"/>
			<point x="259" y="140" type="line"/>
			<point x="259" y="209"/>
			<point x="257" y="278"/>
			<point x="255" y="346" type="curve" smooth="yes"/>
			<point x="243" y="650" type="line"/>
			<point x="75" y="650" type="line"/>
		</contour>
		<contour>
			<point name="aboveUC" x="360" y="670" type="move"/>
		</contour>
		<contour>
			<point name="belowLC" x="230" y="-20" type="move"/>
		</contour>
	</outline>
</glyph>
<glyph name="a.supa" format="1">
	<advance width="600"/>
	<outline>
		<contour>
			<point x="252" y="360" type="curve" smooth="yes"/>
			<point x="295" y="360"/>
			<point x="336" y="377"/>
			<point x="365" y="404" type="curve"/>
			<point x="367" y="404" type="line"/>
			<point x="368" y="368" type="line"/>
			<point x="458" y="368" type="line"/>
			<point x="495" y="553" type="line" smooth="yes"/>
			<point x="516" y="659"/>
			<point x="469" y="706"/>
			<point x="389" y="706" type="curve" smooth="yes"/>
			<point x="330" y="706"/>
			<point x="275" y="692"/>
			<point x="225" y="664" type="curve"/>
			<point x="254" y="593" type="line"/>
			<point x="291" y="612"/>
			<point x="327" y="619"/>
			<point x="352" y="619" type="curve" smooth="yes"/>
			<point x="383" y="619"/>
			<point x="395" y="602"/>
			<point x="390" y="578" type="curve"/>
			<point x="234" y="565"/>
			<point x="172" y="521"/>
			<point x="172" y="444" type="curve" smooth="yes"/>
			<point x="172" y="390"/>
			<point x="206" y="360"/>
		</contour>
		<contour>
			<point x="305" y="444" type="curve" smooth="yes"/>
			<point x="290" y="444"/>
			<point x="281" y="451"/>
			<point x="281" y="465" type="curve" smooth="yes"/>
			<point x="281" y="486"/>
			<point x="309" y="508"/>
			<point x="378" y="514" type="curve"/>
			<point x="369" y="467" type="line"/>
			<point x="353" y="455"/>
			<point x="332" y="444"/>
		</contour>
	</outline>
</glyph>
<glyph name="aspertildecmb" format="1">
	<advance width="600"/>
	<outline>
		<contour>
			<point x="389" y="563" type="curve"/>
			<point x="409" y="615" type="line"/>
			<point x="394" y="617"/>
			<point x="385" y="620"/>
			<point x="387" y="629" type="curve" smooth="yes"/>
			<point x="389" y="639"/>
			<point x="402" y="645"/>
			<point x="452" y="649" type="curve"/>
			<point x="450" y="715" type="line"/>
			<point x="332" y="711"/>
			<point x="293" y="687"/>
			<point x="285" y="647" type="curve" smooth="yes"/>
			<point x="274" y="594"/>
			<point x="323" y="570"/>
		</contour>
		<contour>
			<point x="233" y="744" type="curve"/>
			<point x="314" y="736" type="line"/>
			<point x="325" y="762"/>
			<point x="337" y="772"/>
			<point x="350" y="772" type="curve" smooth="yes"/>
			<point x="375" y="772"/>
			<point x="388" y="730"/>
			<point x="440" y="730" type="curve" smooth="yes"/>
			<point x="494" y="730"/>
			<point x="540" y="764"/>
			<point x="565" y="850" type="curve"/>
			<point x="484" y="858" type="line"/>
			<point x="473" y="832"/>
			<point x="462" y="822"/>
			<point x="448" y="822" type="curve" smooth="yes"/>
			<point x="423" y="822"/>
			<point x="411" y="864"/>
			<point x="359" y="864" type="curve" smooth="yes"/>
			<point x="304" y="864"/>
			<point x="259" y="830"/>
		</contour>
		<contour>
			<point name="_aboveLC" x="340" y="520" type="move"/>
		</contour>
	</outline>
</glyph>
<glyph name="asterisk.a" format="1">
	<advance width="600"/>
	<outline>
		<contour>
			<point x="192" y="277" type="line"/>
			<point x="321" y="396" type="line"/>
			<point x="405" y="270" type="line"/>
			<point x="477" y="311" type="line"/>
			<point x="416" y="452" type="line"/>
			<point x="559" y="519" type="line"/>
			<point x="539" y="590" type="line"/>
			<point x="404" y="559" type="line"/>
			<point x="417" y="712" type="line"/>
			<point x="339" y="712" type="line"/>
			<point x="293" y="563" type="line"/>
			<point x="157" y="594" type="line"/>
			<point x="124" y="524" type="line"/>
			<point x="241" y="461" type="line"/>
			<point x="133" y="324" type="line"/>
		</contour>
	</outline>
</glyph>
<glyph name="aturned" format="1">
	<advance width="600"/>
	<outline>
		<component base="a.a" xScale="-1" yScale="-1" xOffset="580" yOffset="500"/>
		<contour>
			<point name="aboveLC" x="360" y="520" type="move"/>
		</contour>
		<contour>
			<point name="belowLC" x="250" y="-20" type="move"/>
		</contour>
	</outline>
</glyph>
<glyph name="bhook" format="1">
	<advance width="600"/>
	<outline>
		<contour>
			<point x="294" y="-12" type="curve" smooth="yes"/>
			<point x="430" y="-12"/>
			<point x="558" y="128"/>
			<point x="558" y="308" type="curve" smooth="yes"/>
			<point x="558" y="426"/>
			<point x="500" y="492"/>
			<point x="394" y="492" type="curve" smooth="yes"/>
			<point x="346" y="492"/>
			<point x="289" y="468"/>
			<point x="246" y="424" type="curve"/>
			<point x="244" y="424" type="line"/>
			<point x="266" y="492" type="line"/>
			<point x="284" y="556"/>
			<point x="316" y="574"/>
			<point x="368" y="574" type="curve" smooth="yes"/>
			<point x="390" y="574"/>
			<point x="410" y="570"/>
			<point x="432" y="560" type="curve"/>
			<point x="486" y="686" type="line"/>
			<point x="458" y="698"/>
			<point x="422" y="708"/>
			<point x="369" y="708" type="curve" smooth="yes"/>
			<point x="202" y="708"/>
			<point x="130" y="606"/>
			<point x="106" y="486" type="curve" smooth="yes"/>
			<point x="8" y="0" type="line"/>
			<point x="140" y="0" type="line"/>
			<point x="162" y="50" type="line"/>
			<point x="164" y="50" type="line"/>
			<point x="188" y="12"/>
			<point x="240" y="-12"/>
		</contour>
		<contour>
			<point x="270" y="118" type="curve" smooth="yes"/>
			<point x="242" y="118"/>
			<point x="214" y="130"/>
			<point x="200" y="156" type="curve"/>
			<point x="226" y="286" type="line"/>
			<point x="260" y="342"/>
			<point x="298" y="362"/>
			<point x="330" y="362" type="curve" smooth="yes"/>
			<point x="366" y="362"/>
			<point x="392" y="340"/>
			<point x="392" y="288" type="curve" smooth="yes"/>
			<point x="392" y="188"/>
			<point x="332" y="118"/>
		</contour>
		<contour>
			<point name="aboveUC" x="350" y="730" type="move"/>
		</contour>
		<contour>
			<point name="belowLC" x="240" y="-20" type="move"/>
		</contour>
	</outline>
</glyph>
<glyph name="brackhalfbotleft" format="1">
	<advance width="600"/>
	<outline>
		<contour>
			<point x="102" y="-152" type="line"/>
			<point x="400" y="-152" type="line"/>
			<point x="416" y="-68" type="line"/>
			<point x="238" y="-68" type="line"/>
			<point x="308" y="278" type="line"/>
			<point x="188" y="278" type="line"/>
		</contour>
	</outline>
</glyph>
<glyph name="ceilingleft" format="1">
	<advance width="600"/>
	<outline>
		<contour>
			<point x="132" y="0" type="line"/>
			<point x="252" y="0" type="line"/>
			<point x="378" y="624" type="line"/>
			<point x="558" y="624" type="line"/>
			<point x="574" y="708" type="line"/>
			<point x="276" y="708" type="line"/>
		</contour>
	</outline>
</glyph>
<glyph name="circumflexcmb.cap" format="2">
	<advance width="600"/>
	<outline>
		<contour>
			<point x="252" y="680" type="line"/>
			<point x="390" y="770" type="line"/>
			<point x="394" y="770" type="line"/>
			<point x="492" y="680" type="line"/>
			<point x="570" y="724" type="line"/>
			<point x="494" y="856" type="line"/>
			<point x="306" y="856" type="line"/>
			<point x="186" y="730" type="line"/>
		</contour>
	</outline>
	<anchor name="_aboveUC" x="370" y="670"/>
</glyph>
<glyph name="circumflexcmb" format="1">
	<advance width="600"/>
	<outline>
		<contour>
			<point x="216" y="558" type="line"/>
			<point x="366" y="646" type="line"/>
			<point x="370" y="646" type="line"/>
			<point x="480" y="558" type="line"/>
			<point x="550" y="618" type="line"/>
			<point x="466" y="746" type="line"/>
			<point x="290" y="746" type="line"/>
			<point x="162" y="622" type="line"/>
		</contour>
		<contour>
			<point name="_aboveLC" x="340" y="520" type="move"/>
		</contour>
		<contour>
			<point name="aboveLC" x="386" y="740" type="move"/>
		</contour>
	</outline>
</glyph>
<glyph name="circumflextildecmb" format="1">
	<advance width="600"/>
	<outline>
		<contour>
			<point x="256" y="564" type="line"/>
			<point x="368" y="620" type="line"/>
			<point x="372" y="620" type="line"/>
			<point x="464" y="564" type="line"/>
			<point x="526" y="620" type="line"/>
			<point x="448" y="706" type="line"/>
			<point x="312" y="706" type="line"/>
			<point x="210" y="628" type="line"/>
		</contour>
		<contour>
			<point x="440" y="718" type="curve" smooth="yes"/>
			<point x="492" y="718"/>
			<point x="533" y="752"/>
			<point x="556" y="838" type="curve"/>
			<point x="482" y="846" type="line"/>
			<point x="472" y="820"/>
			<point x="460" y="810"/>
			<point x="446" y="810" type="curve" smooth="yes"/>
			<point x="420" y="810"/>
			<point x="406" y="852"/>
			<point x="352" y="852" type="curve" smooth="yes"/>
			<point x="300" y="852"/>
			<point x="259" y="818"/>
			<point x="234" y="732" type="curve"/>
			<point x="308" y="724" type="line"/>
			<point x="320" y="750"/>
			<point x="332" y="760"/>
			<point x="346" y="760" type="curve" smooth="yes"/>
			<point x="372" y="760"/>
			<point x="386" y="718"/>
		</contour>
		<contour>
			<point name="_aboveLC" x="340" y="520" type="move"/>
		</contour>
	</outline>
</glyph>
<glyph name="colontriangularhalfmod" format="1">
	<advance width="600"/>
	<outline>
		<contour>
			<point x="289" y="296" type="line"/>
			<point x="304" y="296" type="line"/>
			<point x="468" y="500" type="line"/>
			<point x="204" y="500" type="line"/>
		</contour>
	</outline>
</glyph>
<glyph name="colontriangularmod" format="1">
	<advance width="600"/>
	<outline>
		<contour>
			<point x="110" y="0" type="line"/>
			<point x="374" y="0" type="line"/>
			<point x="289" y="204" type="line"/>
			<point x="274" y="204" type="line"/>
		</contour>
		<contour>
			<point x="289" y="296" type="line"/>
			<point x="304" y="296" type="line"/>
			<point x="468" y="500" type="line"/>
			<point x="204" y="500" type="line"/>
		</contour>
	</outline>
</glyph>
<glyph name="commabelowcmb.a" format="1">
	<advance width="600"/>
	<outline>
		<contour>
			<point x="384" y="546" type="curve"/>
			<point x="425" y="603" type="line"/>
			<point x="401" y="610"/>
			<point x="393" y="619"/>
			<point x="393" y="633" type="curve" smooth="yes"/>
			<point x="393" y="660"/>
			<point x="431" y="669"/>
			<point x="482" y="674" type="curve"/>
			<point x="483" y="736" type="line"/>
			<point x="361" y="732"/>
			<point x="277" y="696"/>
			<point x="277" y="615" type="curve" smooth="yes"/>
			<point x="277" y="575"/>
			<point x="311" y="553"/>
		</contour>
		<contour>
			<point name="_aboveLC" x="340" y="520" type="move"/>
		</contour>
	</outline>
</glyph>
<glyph name="dieresiscaroncmb.cap" format="2">
	<advance width="600"/>
	<outline>
		<contour>
			<point x="264" y="696" type="curve" smooth="yes"/>
			<point x="306" y="696"/>
			<point x="336" y="734"/>
			<point x="336" y="770" type="curve" smooth="yes"/>
			<point x="336" y="804"/>
			<point x="312" y="826"/>
			<point x="280" y="826" type="curve" smooth="yes"/>
			<point x="238" y="826"/>
			<point x="208" y="788"/>
			<point x="208" y="752" type="curve" smooth="yes"/>
			<point x="208" y="718"/>
			<point x="232" y="696"/>
		</contour>
		<contour>
			<point x="478" y="696" type="curve" smooth="yes"/>
			<point x="520" y="696"/>
			<point x="550" y="734"/>
			<point x="550" y="770" type="curve" smooth="yes"/>
			<point x="550" y="804"/>
			<point x="526" y="826"/>
			<point x="494" y="826" type="curve" smooth="yes"/>
			<point x="452" y="826"/>
			<point x="422" y="788"/>
			<point x="422" y="752" type="curve" smooth="yes"/>
			<point x="422" y="718"/>
			<point x="446" y="696"/>
		</contour>
		<contour>
			<point x="322" y="860" type="line"/>
			<point x="470" y="860" type="line"/>
			<point x="576" y="964" type="line"/>
			<point x="514" y="1008" type="line"/>
			<point x="410" y="936" type="line"/>
			<point x="406" y="936" type="line"/>
			<point x="326" y="1008" type="line"/>
			<point x="252" y="964" type="line"/>
		</contour>
	</outline>
	<anchor name="_aboveUC" x="370" y="670"/>
</glyph>
<glyph name="dieresiscmb.cap" format="1">
	<advance width="600"/>
	<outline>
		<contour>
			<point x="274" y="696" type="curve" smooth="yes"/>
			<point x="322" y="696"/>
			<point x="356" y="740"/>
			<point x="356" y="780" type="curve" smooth="yes"/>
			<point x="356" y="820"/>
			<point x="326" y="844"/>
			<point x="292" y="844" type="curve" smooth="yes"/>
			<point x="244" y="844"/>
			<point x="210" y="800"/>
			<point x="210" y="760" type="curve" smooth="yes"/>
			<point x="210" y="720"/>
			<point x="238" y="696"/>
		</contour>
		<contour>
			<point x="494" y="696" type="curve" smooth="yes"/>
			<point x="542" y="696"/>
			<point x="576" y="740"/>
			<point x="576" y="780" type="curve" smooth="yes"/>
			<point x="576" y="820"/>
			<point x="546" y="844"/>
			<point x="512" y="844" type="curve" smooth="yes"/>
			<point x="464" y="844"/>
			<point x="430" y="800"/>
			<point x="430" y="760" type="curve" smooth="yes"/>
			<point x="430" y="720"/>
			<point x="458" y="696"/>
		</contour>
		<contour>
			<point name="_aboveUC" x="370" y="670" type="move"/>
		</contour>
	</outline>
</glyph>
<glyph name="dieresistildecmb" format="1">
	<advance width="600"/>
	<outline>
		<contour>
			<point x="243" y="564" type="curve" smooth="yes"/>
			<point x="282" y="564"/>
			<point x="315" y="594"/>
			<point x="322" y="632" type="curve" smooth="yes"/>
			<point x="330" y="670"/>
			<point x="309" y="700"/>
			<point x="270" y="700" type="curve" smooth="yes"/>
			<point x="232" y="700"/>
			<point x="199" y="670"/>
			<point x="192" y="632" type="curve" smooth="yes"/>
			<point x="184" y="594"/>
			<point x="205" y="564"/>
		</contour>
		<contour>
			<point x="462" y="564" type="curve" smooth="yes"/>
			<point x="501" y="564"/>
			<point x="533" y="594"/>
			<point x="541" y="632" type="curve" smooth="yes"/>
			<point x="549" y="670"/>
			<point x="528" y="700"/>
			<point x="489" y="700" type="curve" smooth="yes"/>
			<point x="451" y="700"/>
			<point x="418" y="670"/>
			<point x="410" y="632" type="curve" smooth="yes"/>
			<point x="403" y="594"/>
			<point x="424" y="564"/>
		</contour>
		<contour>
			<point x="447" y="718" type="curve" smooth="yes"/>
			<point x="495" y="718"/>
			<point x="541" y="756"/>
			<point x="563" y="838" type="curve"/>
			<point x="495" y="846" type="line"/>
			<point x="484" y="820"/>
			<point x="471" y="810"/>
			<point x="456" y="810" type="curve" smooth="yes"/>
			<point x="425" y="810"/>
			<point x="408" y="852"/>
			<point x="347" y="852" type="curve" smooth="yes"/>
			<point x="299" y="852"/>
			<point x="253" y="814"/>
			<point x="231" y="732" type="curve"/>
			<point x="298" y="724" type="line"/>
			<point x="309" y="750"/>
			<point x="323" y="760"/>
			<point x="338" y="760" type="curve" smooth="yes"/>
			<point x="368" y="760"/>
			<point x="385" y="718"/>
		</contour>
		<contour>
			<point name="_aboveLC" x="340" y="520" type="move"/>
		</contour>
	</outline>
</glyph>
<glyph name="dong" format="1">
	<advance width="600"/>
	<outline>
		<contour>
			<point x="214" y="117" type="curve" smooth="yes"/>
			<point x="259" y="117"/>
			<point x="309" y="134"/>
			<point x="344" y="170" type="curve"/>
			<point x="348" y="170" type="line"/>
			<point x="350" y="127" type="line"/>
			<point x="450" y="127" type="line"/>
			<point x="554" y="649" type="line"/>
			<point x="425" y="649" type="line"/>
			<point x="398" y="512" type="line"/>
			<point x="390" y="447" type="line"/>
			<point x="367" y="470"/>
			<point x="338" y="486"/>
			<point x="290" y="486" type="curve" smooth="yes"/>
			<point x="184" y="486"/>
			<point x="75" y="406"/>
			<point x="75" y="262" type="curve" smooth="yes"/>
			<point x="75" y="169"/>
			<point x="127" y="117"/>
		</contour>
		<contour>
			<point x="267" y="220" type="curve" smooth="yes"/>
			<point x="232" y="220"/>
			<point x="212" y="240"/>
			<point x="212" y="283" type="curve" smooth="yes"/>
			<point x="212" y="349"/>
			<point x="261" y="381"/>
			<point x="303" y="381" type="curve" smooth="yes"/>
			<point x="330" y="381"/>
			<point x="349" y="374"/>
			<point x="367" y="358" type="curve"/>
			<point x="345" y="256" type="line"/>
			<point x="319" y="231"/>
			<point x="297" y="220"/>
		</contour>
		<contour>
			<point x="246" y="525" type="line"/>
			<point x="529" y="525" type="line"/>
			<point x="603" y="530" type="line"/>
			<point x="617" y="603" type="line"/>
			<point x="262" y="603" type="line"/>
		</contour>
		<contour>
			<point x="33" y="0" type="line"/>
			<point x="458" y="0" type="line"/>
			<point x="474" y="78" type="line"/>
			<point x="49" y="78" type="line"/>
		</contour>
	</outline>
</glyph>
<glyph name="egrave.sups" format="2">
	<advance width="600"/>
	<outline>
		<contour>
			<point x="394" y="742" type="line"/>
			<point x="459" y="792" type="line"/>
			<point x="378" y="926" type="line"/>
			<point x="288" y="858" type="line"/>
		</contour>
		<component base="e.sups"/>
	</outline>
</glyph>
<glyph name="eight.dnom" format="1">
	<advance width="600"/>
	<outline>
		<contour>
			<point x="238" y="-12" type="curve" smooth="yes"/>
			<point x="333" y="-12"/>
			<point x="395" y="23"/>
			<point x="395" y="90" type="curve" smooth="yes"/>
			<point x="395" y="124"/>
			<point x="378" y="144"/>
			<point x="347" y="163" type="curve"/>
			<point x="347" y="165" type="line"/>
			<point x="385" y="181"/>
			<point x="415" y="208"/>
			<point x="415" y="246" type="curve" smooth="yes"/>
			<point x="415" y="298"/>
			<point x="371" y="325"/>
			<point x="305" y="325" type="curve" smooth="yes"/>
			<point x="229" y="325"/>
			<point x="159" y="292"/>
			<point x="159" y="222" type="curve" smooth="yes"/>
			<point x="159" y="198"/>
			<point x="169" y="177"/>
			<point x="195" y="156" type="curve" smooth="yes"/>
			<point x="195" y="156"/>
			<point x="195" y="154"/>
			<point x="195" y="154" type="curve"/>
			<point x="157" y="137"/>
			<point x="124" y="113"/>
			<point x="124" y="69" type="curve" smooth="yes"/>
			<point x="124" y="17"/>
			<point x="165" y="-12"/>
		</contour>
		<contour>
			<point x="295" y="190" type="curve"/>
			<point x="271" y="203"/>
			<point x="260" y="216"/>
			<point x="260" y="228" type="curve" smooth="yes"/>
			<point x="260" y="244"/>
			<point x="274" y="253"/>
			<point x="290" y="253" type="curve" smooth="yes"/>
			<point x="307" y="253"/>
			<point x="315" y="243"/>
			<point x="315" y="228" type="curve" smooth="yes"/>
			<point x="315" y="214"/>
			<point x="306" y="200"/>
		</contour>
		<contour>
			<point x="253" y="60" type="curve"/>
			<point x="233" y="60"/>
			<point x="223" y="71"/>
			<point x="223" y="86" type="curve" smooth="yes"/>
			<point x="223" y="103"/>
			<point x="233" y="117"/>
			<point x="246" y="127" type="curve"/>
			<point x="280" y="111"/>
			<point x="294" y="102"/>
			<point x="294" y="87" type="curve" smooth="yes"/>
			<point x="294" y="68"/>
			<point x="274" y="60"/>
		</contour>
	</outline>
</glyph>
<glyph name="eight.subs" format="1">
	<advance width="600"/>
	<outline>
		<contour>
			<point x="249" y="-202" type="curve" smooth="yes"/>
			<point x="337" y="-202"/>
			<point x="409" y="-150"/>
			<point x="409" y="-82" type="curve" smooth="yes"/>
			<point x="409" y="-44"/>
			<point x="389" y="-16"/>
			<point x="361" y="4" type="curve"/>
			<point x="361" y="8" type="line"/>
			<point x="403" y="30"/>
			<point x="431" y="66"/>
			<point x="431" y="112" type="curve" smooth="yes"/>
			<point x="431" y="172"/>
			<point x="383" y="212"/>
			<point x="309" y="212" type="curve" smooth="yes"/>
			<point x="233" y="212"/>
			<point x="165" y="166"/>
			<point x="165" y="98" type="curve" smooth="yes"/>
			<point x="165" y="66"/>
			<point x="179" y="42"/>
			<point x="201" y="22" type="curve"/>
			<point x="199" y="18" type="line"/>
			<point x="155" y="-4"/>
			<point x="111" y="-44"/>
			<point x="111" y="-96" type="curve" smooth="yes"/>
			<point x="111" y="-156"/>
			<point x="163" y="-202"/>
		</contour>
		<contour>
			<point x="303" y="50" type="curve"/>
			<point x="281" y="62"/>
			<point x="265" y="76"/>
			<point x="265" y="96" type="curve" smooth="yes"/>
			<point x="265" y="120"/>
			<point x="281" y="132"/>
			<point x="301" y="132" type="curve" smooth="yes"/>
			<point x="317" y="132"/>
			<point x="331" y="122"/>
			<point x="331" y="102" type="curve" smooth="yes"/>
			<point x="331" y="86"/>
			<point x="321" y="70"/>
		</contour>
		<contour>
			<point x="257" y="-124" type="curve" smooth="yes"/>
			<point x="235" y="-124"/>
			<point x="219" y="-104"/>
			<point x="219" y="-86" type="curve" smooth="yes"/>
			<point x="219" y="-62"/>
			<point x="233" y="-42"/>
			<point x="257" y="-28" type="curve"/>
			<point x="283" y="-44"/>
			<point x="305" y="-56"/>
			<point x="305" y="-80" type="curve" smooth="yes"/>
			<point x="305" y="-106"/>
			<point x="287" y="-124"/>
		</contour>
	</outline>
</glyph>
<glyph name="ellipsis" format="1">
	<advance width="600"/>
	<outline>
		<contour>
			<point x="28" y="-12" type="curve" smooth="yes"/>
			<point x="101" y="-12"/>
			<point x="143" y="44"/>
			<point x="143" y="107" type="curve" smooth="yes"/>
			<point x="143" y="154"/>
			<point x="118" y="187"/>
			<point x="68" y="187" type="curve" smooth="yes"/>
			<point x="1" y="187"/>
			<point x="-48" y="129"/>
			<point x="-48" y="68" type="curve" smooth="yes"/>
			<point x="-48" y="23"/>
			<point x="-22" y="-12"/>
		</contour>
		<contour>
			<point x="238" y="-12" type="curve" smooth="yes"/>
			<point x="312" y="-12"/>
			<point x="354" y="44"/>
			<point x="354" y="107" type="curve" smooth="yes"/>
			<point x="354" y="154"/>
			<point x="329" y="187"/>
			<point x="279" y="187" type="curve" smooth="yes"/>
			<point x="212" y="187"/>
			<point x="163" y="129"/>
			<point x="163" y="68" type="curve" smooth="yes"/>
			<point x="163" y="23"/>
			<point x="189" y="-12"/>
		</contour>
		<contour>
			<point x="449" y="-12" type="curve" smooth="yes"/>
			<point x="522" y="-12"/>
			<point x="565" y="44"/>
			<point x="565" y="107" type="curve" smooth="yes"/>
			<point x="565" y="154"/>
			<point x="540" y="187"/>
			<point x="490" y="187" type="curve" smooth="yes"/>
			<point x="423" y="187"/>
			<point x="373" y="131"/>
			<point x="373" y="68" type="curve" smooth="yes"/>
			<point x="373" y="23"/>
			<point x="399" y="-12"/>
		</contour>
	</outline>
</glyph>
<glyph name="emdash.sups" format="2">
	<advance width="600"/>
	<outline>
		<contour>
			<point x="110" y="498" type="line"/>
			<point x="568" y="498" type="line"/>
			<point x="582" y="570" type="line"/>
			<point x="124" y="570" type="line"/>
		</contour>
	</outline>
</glyph>
<glyph name="five.dnom" format="1">
	<advance width="600"/>
	<outline>
		<contour>
			<point x="243" y="-12" type="curve" smooth="yes"/>
			<point x="327" y="-12"/>
			<point x="395" y="34"/>
			<point x="395" y="114" type="curve" smooth="yes"/>
			<point x="395" y="173"/>
			<point x="355" y="196"/>
			<point x="311" y="196" type="curve" smooth="yes"/>
			<point x="290" y="196"/>
			<point x="267" y="191"/>
			<point x="258" y="187" type="curve"/>
			<point x="267" y="222" type="line"/>
			<point x="398" y="222" type="line"/>
			<point x="418" y="313" type="line"/>
			<point x="199" y="313" type="line"/>
			<point x="158" y="148" type="line"/>
			<point x="197" y="118" type="line"/>
			<point x="216" y="128"/>
			<point x="234" y="131"/>
			<point x="253" y="131" type="curve" smooth="yes"/>
			<point x="274" y="131"/>
			<point x="287" y="123"/>
			<point x="287" y="103" type="curve" smooth="yes"/>
			<point x="287" y="81"/>
			<point x="268" y="70"/>
			<point x="239" y="70" type="curve" smooth="yes"/>
			<point x="205" y="70"/>
			<point x="185" y="90"/>
			<point x="167" y="108" type="curve"/>
			<point x="111" y="45" type="line"/>
			<point x="142" y="8"/>
			<point x="186" y="-12"/>
		</contour>
	</outline>
</glyph>
<glyph name="fl" format="1">
	<advance width="600"/>
	<outline>
		<contour>
			<point x="12" y="0" type="line"/>
			<point x="172" y="0" type="line"/>
			<point x="246" y="376" type="line"/>
			<point x="340" y="376" type="line"/>
			<point x="364" y="500" type="line"/>
			<point x="272" y="500" type="line"/>
			<point x="276" y="520" type="line" smooth="yes"/>
			<point x="286" y="574"/>
			<point x="306" y="582"/>
			<point x="340" y="582" type="curve" smooth="yes"/>
			<point x="356" y="582"/>
			<point x="376" y="574"/>
			<point x="386" y="568" type="curve"/>
			<point x="436" y="680" type="line"/>
			<point x="402" y="698"/>
			<point x="362" y="708"/>
			<point x="322" y="708" type="curve" smooth="yes"/>
			<point x="196" y="708"/>
			<point x="136" y="618"/>
			<point x="116" y="514" type="curve" smooth="yes"/>
			<point x="114" y="500" type="line"/>
			<point x="48" y="494" type="line"/>
			<point x="24" y="376" type="line"/>
			<point x="88" y="376" type="line"/>
		</contour>
		<contour>
			<point x="470" y="-12" type="curve" smooth="yes"/>
			<point x="506" y="-12"/>
			<point x="534" y="-6"/>
			<point x="552" y="0" type="curve"/>
			<point x="558" y="118" type="line"/>
			<point x="550" y="116"/>
			<point x="546" y="116"/>
			<point x="540" y="116" type="curve" smooth="yes"/>
			<point x="530" y="116"/>
			<point x="520" y="122"/>
			<point x="520" y="141" type="curve" smooth="yes"/>
			<point x="520" y="146"/>
			<point x="520" y="150"/>
			<point x="522" y="160" type="curve" smooth="yes"/>
			<point x="630" y="696" type="line"/>
			<point x="470" y="696" type="line"/>
			<point x="364" y="166" type="line" smooth="yes"/>
			<point x="358" y="138"/>
			<point x="356" y="118"/>
			<point x="356" y="98" type="curve" smooth="yes"/>
			<point x="356" y="30"/>
			<point x="388" y="-12"/>
		</contour>
	</outline>
</glyph>
<glyph name="four.dnom" format="1">
	<advance width="600"/>
	<outline>
		<contour>
			<point x="254" y="0" type="line"/>
			<point x="350" y="0" type="line"/>
			<point x="388" y="192" type="line"/>
			<point x="292" y="192" type="line"/>
		</contour>
		<contour>
			<point x="101" y="58" type="line"/>
			<point x="412" y="58" type="line"/>
			<point x="426" y="128" type="line"/>
			<point x="216" y="128" type="line"/>
			<point x="336" y="286" type="line"/>
			<point x="266" y="325" type="line"/>
			<point x="112" y="112" type="line"/>
		</contour>
	</outline>
</glyph>
<glyph name="germandbls" format="1">
	<advance width="600"/>
	<outline>
		<contour>
			<point x="354" y="-12" type="curve" smooth="yes"/>
			<point x="474" y="-12"/>
			<point x="548" y="68"/>
			<point x="548" y="170" type="curve" smooth="yes"/>
			<point x="548" y="284"/>
			<point x="440" y="316"/>
			<point x="440" y="366" type="curve" smooth="yes"/>
			<point x="440" y="418"/>
			<point x="532" y="444"/>
			<point x="532" y="552" type="curve" smooth="yes"/>
			<point x="532" y="662"/>
			<point x="442" y="708"/>
			<point x="342" y="708" type="curve" smooth="yes"/>
			<point x="204" y="708"/>
			<point x="119" y="618"/>
			<point x="96" y="498" type="curve"/>
			<point x="-4" y="0" type="line"/>
			<point x="156" y="0" type="line"/>
			<point x="248" y="468" type="line"/>
			<point x="262" y="540"/>
			<point x="290" y="582"/>
			<point x="336" y="582" type="curve" smooth="yes"/>
			<point x="366" y="582"/>
			<point x="378" y="564"/>
			<point x="378" y="530" type="curve" smooth="yes"/>
			<point x="378" y="450"/>
			<point x="284" y="422"/>
			<point x="284" y="335" type="curve" smooth="yes"/>
			<point x="284" y="236"/>
			<point x="400" y="210"/>
			<point x="400" y="154" type="curve" smooth="yes"/>
			<point x="400" y="124"/>
			<point x="379" y="106"/>
			<point x="349" y="106" type="curve" smooth="yes"/>
			<point x="314" y="106"/>
			<point x="293" y="121"/>
			<point x="268" y="142" type="curve"/>
			<point x="204" y="35" type="line"/>
			<point x="249" y="0"/>
			<point x="302" y="-12"/>
		</contour>
	</outline>
</glyph>
<glyph name="glottalstopreversedmod" format="1">
	<advance width="600"/>
	<outline>
		<contour>
			<point x="274" y="456" type="line"/>
			<point x="385" y="456" type="line"/>
			<point x="408" y="575" type="line"/>
			<point x="339" y="623"/>
			<point x="322" y="650"/>
			<point x="322" y="691" type="curve" smooth="yes"/>
			<point x="322" y="722"/>
			<point x="345" y="749"/>
			<point x="382" y="749" type="curve" smooth="yes"/>
			<point x="423" y="749"/>
			<point x="449" y="735"/>
			<point x="478" y="704" type="curve"/>
			<point x="539" y="766" type="line"/>
			<point x="508" y="806"/>
			<point x="458" y="835"/>
			<point x="381" y="835" type="curve" smooth="yes"/>
			<point x="286" y="835"/>
			<point x="207" y="772"/>
			<point x="207" y="679" type="curve" smooth="yes"/>
			<point x="207" y="622"/>
			<point x="241" y="581"/>
			<point x="289" y="533" type="curve"/>
		</contour>
	</outline>
</glyph>
<glyph name="gravecmb.cap" format="1">
	<advance width="600"/>
	<outline>
		<contour>
			<point x="398" y="670" type="line"/>
			<point x="488" y="748" type="line"/>
			<point x="332" y="907" type="line"/>
			<point x="223" y="806" type="line"/>
		</contour>
		<contour>
			<point name="_aboveUC" x="370" y="670" type="move"/>
		</contour>
	</outline>
</glyph>
<glyph name="gscript" format="1">
	<advance width="600"/>
	<outline>
		<component base="g"/>
		<contour>
			<point name="aboveLC" x="346" y="520" type="move"/>
		</contour>
		<contour>
			<point name="belowLC" x="216" y="-200" type="move"/>
		</contour>
	</outline>
</glyph>
<glyph name="hookrhoticmod" format="1">
	<advance width="600"/>
	<outline>
		<contour>
			<point x="400" y="225" type="curve" smooth="yes"/>
			<point x="435" y="225"/>
			<point x="463" y="236"/>
			<point x="487" y="250" type="curve"/>
			<point x="471" y="329" type="line"/>
			<point x="460" y="324"/>
			<point x="446" y="319"/>
			<point x="430" y="319" type="curve" smooth="yes"/>
			<point x="406" y="319"/>
			<point x="390" y="352"/>
			<point x="395" y="472" type="curve"/>
			<point x="182" y="384" type="line"/>
			<point x="157" y="262" type="line"/>
			<point x="300" y="322" type="line"/>
			<point x="311" y="246"/>
			<point x="353" y="225"/>
		</contour>
	</outline>
</glyph>
<glyph name="hyphen.a" format="1">
	<advance width="600"/>
	<outline>
		<contour>
			<point x="101" y="196" type="line"/>
			<point x="457" y="196" type="line"/>
			<point x="480" y="313" type="line"/>
			<point x="124" y="313" type="line"/>
		</contour>
	</outline>
</glyph>
<glyph name="ij" format="1">
	<advance width="600"/>
	<outline>
		<contour>
			<point x="4" y="0" type="line"/>
			<point x="164" y="0" type="line"/>
			<point x="264" y="500" type="line"/>
			<point x="104" y="500" type="line"/>
		</contour>
		<contour>
			<point x="211" y="564" type="curve" smooth="yes"/>
			<point x="274" y="564"/>
			<point x="324" y="609"/>
			<point x="324" y="669" type="curve" smooth="yes"/>
			<point x="324" y="726"/>
			<point x="282" y="756"/>
			<point x="225" y="756" type="curve" smooth="yes"/>
			<point x="162" y="756"/>
			<point x="113" y="707"/>
			<point x="113" y="651" type="curve" smooth="yes"/>
			<point x="113" y="592"/>
			<point x="161" y="564"/>
		</contour>
		<contour>
			<point x="272" y="-188" type="curve" smooth="yes"/>
			<point x="396" y="-188"/>
			<point x="450" y="-102"/>
			<point x="472" y="2" type="curve" smooth="yes"/>
			<point x="572" y="500" type="line"/>
			<point x="412" y="500" type="line"/>
			<point x="314" y="10" type="line" smooth="yes"/>
			<point x="302" y="-42"/>
			<point x="290" y="-62"/>
			<point x="258" y="-62" type="curve" smooth="yes"/>
			<point x="244" y="-62"/>
			<point x="230" y="-58"/>
			<point x="216" y="-50" type="curve"/>
			<point x="168" y="-164" type="line"/>
			<point x="204" y="-182"/>
			<point x="236" y="-188"/>
		</contour>
		<contour>
			<point x="517" y="564" type="curve" smooth="yes"/>
			<point x="580" y="564"/>
			<point x="630" y="609"/>
			<point x="630" y="669" type="curve" smooth="yes"/>
			<point x="630" y="726"/>
			<point x="588" y="756"/>
			<point x="531" y="756" type="curve" smooth="yes"/>
			<point x="468" y="756"/>
			<point x="419" y="707"/>
			<point x="419" y="651" type="curve" smooth="yes"/>
			<point x="419" y="592"/>
			<point x="467" y="564"/>
		</contour>
	</outline>
</glyph>
<glyph name="iogonek.d" format="1">
	<advance width="600"/>
	<outline>
		<contour>
			<point x="342" y="-228" type="curve" smooth="yes"/>
			<point x="390" y="-228"/>
			<point x="434" y="-212"/>
			<point x="466" y="-188" type="curve"/>
			<point x="440" y="-124" type="line"/>
			<point x="424" y="-132"/>
			<point x="414" y="-134"/>
			<point x="400" y="-134" type="curve" smooth="yes"/>
			<point x="376" y="-134"/>
			<point x="354" y="-120"/>
			<point x="354" y="-94" type="curve" smooth="yes"/>
			<point x="354" y="-58"/>
			<point x="392" y="-26"/>
			<point x="494" y="16" type="curve"/>
			<point x="462" y="136" type="line"/>
			<point x="432" y="124"/>
			<point x="412" y="118"/>
			<point x="390" y="118" type="curve" smooth="yes"/>
			<point x="358" y="118"/>
			<point x="336" y="133"/>
			<point x="336" y="170" type="curve" smooth="yes"/>
			<point x="336" y="178"/>
			<point x="338" y="186"/>
			<point x="340" y="194" type="curve" smooth="yes"/>
			<point x="414" y="500" type="line"/>
			<point x="96" y="500" type="line"/>
			<point x="70" y="376" type="line"/>
			<point x="228" y="376" type="line"/>
			<point x="182" y="200" type="line" smooth="yes"/>
			<point x="176" y="178"/>
			<point x="172" y="158"/>
			<point x="172" y="138" type="curve" smooth="yes"/>
			<point x="172" y="46"/>
			<point x="240" y="-12"/>
			<point x="330" y="-12" type="curve" smooth="yes"/>
			<point x="332" y="-12"/>
			<point x="332" y="-12"/>
			<point x="334" y="-12" type="curve"/>
			<point x="282" y="-44"/>
			<point x="240" y="-82"/>
			<point x="240" y="-140" type="curve" smooth="yes"/>
			<point x="240" y="-198"/>
			<point x="282" y="-228"/>
		</contour>
		<contour>
			<point name="aboveLC" x="334" y="520" type="move"/>
		</contour>
	</outline>
</glyph>
<glyph name="jcrossedtail" format="1">
	<advance width="600"/>
	<outline>
		<component base="jcrossedtail.d"/>
		<component base="dotaccentcmb" xOffset="58"/>
		<contour>
			<point name="belowLC" x="170" y="-200" type="move"/>
		</contour>
	</outline>
</glyph>
<glyph name="k.sups" format="1">
	<advance width="600"/>
	<outline>
		<contour>
			<point x="156" y="368" type="line"/>
			<point x="266" y="368" type="line"/>
			<point x="282" y="448" type="line"/>
			<point x="282" y="448"/>
			<point x="561" y="698"/>
			<point x="561" y="698" type="curve"/>
			<point x="441" y="698" type="line"/>
			<point x="310" y="577" type="line"/>
			<point x="307" y="577" type="line"/>
			<point x="358" y="828" type="line"/>
			<point x="248" y="828" type="line"/>
		</contour>
		<contour>
			<point x="403" y="587" type="line"/>
			<point x="324" y="507" type="line"/>
			<point x="384" y="368" type="line"/>
			<point x="508" y="368" type="line"/>
		</contour>
	</outline>
</glyph>
<glyph name="lenisacutecmb" format="1">
	<advance width="600"/>
	<outline>
		<contour>
			<point x="203" y="574" type="line"/>
			<point x="263" y="582"/>
			<point x="335" y="611"/>
			<point x="350" y="686" type="curve" smooth="yes"/>
			<point x="362" y="747"/>
			<point x="321" y="790"/>
			<point x="207" y="794" type="curve"/>
			<point x="180" y="700" type="line"/>
			<point x="227" y="696"/>
			<point x="242" y="685"/>
			<point x="239" y="668" type="curve" smooth="yes"/>
			<point x="235" y="649"/>
			<point x="221" y="643"/>
			<point x="205" y="640" type="curve"/>
		</contour>
		<contour>
			<point x="449" y="556" type="line"/>
			<point x="562" y="776" type="line"/>
			<point x="437" y="802" type="line"/>
			<point x="362" y="574" type="line"/>
		</contour>
		<contour>
			<point name="_aboveLC" x="340" y="520" type="move"/>
		</contour>
	</outline>
</glyph>
<glyph name="lretroflex" format="1">
	<advance width="600"/>
	<outline>
		<contour>
			<point x="288" y="-188" type="curve" smooth="yes"/>
			<point x="346" y="-188"/>
			<point x="394" y="-180"/>
			<point x="448" y="-156" type="curve"/>
			<point x="416" y="-38" type="line"/>
			<point x="384" y="-52"/>
			<point x="367" y="-58"/>
			<point x="338" y="-58" type="curve" smooth="yes"/>
			<point x="310" y="-58"/>
			<point x="286" y="-44"/>
			<point x="286" y="-12" type="curve" smooth="yes"/>
			<point x="286" y="4"/>
			<point x="288" y="14"/>
			<point x="290" y="22" type="curve" smooth="yes"/>
			<point x="440" y="696" type="line"/>
			<point x="148" y="696" type="line"/>
			<point x="122" y="572" type="line"/>
			<point x="256" y="572" type="line"/>
			<point x="136" y="44" type="line" smooth="yes"/>
			<point x="131" y="20"/>
			<point x="128" y="-2"/>
			<point x="128" y="-22" type="curve" smooth="yes"/>
			<point x="128" y="-126"/>
			<point x="194" y="-188"/>
		</contour>
		<contour>
			<point name="aboveUC" x="360" y="730" type="move"/>
		</contour>
		<contour>
			<point name="belowLC" x="270" y="-200" type="move"/>
		</contour>
	</outline>
</glyph>
<glyph name="macronacutecmb" format="2">
	<advance width="600"/>
	<outline>
		<contour>
			<point x="210" y="590" type="line"/>
			<point x="504" y="590" type="line"/>
			<point x="524" y="690" type="line"/>
			<point x="230" y="690" type="line"/>
		</contour>
		<contour>
			<point x="396" y="719" type="line"/>
			<point x="519" y="830" type="line"/>
			<point x="440" y="896" type="line"/>
			<point x="340" y="764" type="line"/>
		</contour>
	</outline>
	<anchor name="_aboveLC" x="340" y="520"/>
</glyph>
<glyph name="macroncmb.cap" format="2">
	<advance width="600"/>
	<outline>
		<contour>
			<point x="232" y="716" type="line"/>
			<point x="532" y="716" type="line"/>
			<point x="552" y="818" type="line"/>
			<point x="252" y="818" type="line"/>
		</contour>
	</outline>
	<anchor name="_aboveUC" x="370" y="670"/>
</glyph>
<glyph name="macroncmb" format="1">
	<advance width="600"/>
	<outline>
		<contour>
			<point x="210" y="590" type="line"/>
			<point x="504" y="590" type="line"/>
			<point x="524" y="690" type="line"/>
			<point x="230" y="690" type="line"/>
		</contour>
		<contour>
			<point name="_aboveLC" x="340" y="520" type="move"/>
		</contour>
		<contour>
			<point name="aboveLC" x="300" y="520" type="move"/>
		</contour>
	</outline>
</glyph>
<glyph name="minusbelowcmb" format="1">
	<advance width="600"/>
	<outline>
		<contour>
			<point x="91" y="-196" type="line"/>
			<point x="306" y="-196" type="line"/>
			<point x="322" y="-116" type="line"/>
			<point x="107" y="-116" type="line"/>
		</contour>
		<contour>
			<point name="_belowLC" x="234" y="-20" type="move"/>
		</contour>
	</outline>
</glyph>
<glyph name="one.a" format="1">
	<advance width="600"/>
	<outline>
		<contour>
			<point x="14" y="0" type="line"/>
			<point x="482" y="0" type="line"/>
			<point x="508" y="128" type="line"/>
			<point x="368" y="128" type="line"/>
			<point x="470" y="634" type="line"/>
			<point x="345" y="634" type="line"/>
			<point x="100" y="446" type="line"/>
			<point x="165" y="354" type="line"/>
			<point x="322" y="448" type="line"/>
			<point x="282" y="496" type="line"/>
			<point x="208" y="128" type="line"/>
			<point x="40" y="128" type="line"/>
		</contour>
	</outline>
</glyph>
<glyph name="one.ao" format="1">
	<advance width="600"/>
	<outline>
		<contour>
			<point x="14" y="0" type="line"/>
			<point x="482" y="0" type="line"/>
			<point x="508" y="128" type="line"/>
			<point x="368" y="128" type="line"/>
			<point x="458" y="580" type="line"/>
			<point x="333" y="580" type="line"/>
			<point x="88" y="392" type="line"/>
			<point x="153" y="300" type="line"/>
			<point x="310" y="394" type="line"/>
			<point x="270" y="442" type="line"/>
			<point x="208" y="128" type="line"/>
			<point x="40" y="128" type="line"/>
		</contour>
	</outline>
</glyph>
<glyph name="p.sups" format="1">
	<advance width="600"/>
	<outline>
		<contour>
			<point x="140" y="250" type="line"/>
			<point x="251" y="250" type="line"/>
			<point x="269" y="343" type="line"/>
			<point x="275" y="394" type="line"/>
			<point x="294" y="372"/>
			<point x="318" y="360"/>
			<point x="351" y="360" type="curve" smooth="yes"/>
			<point x="443" y="360"/>
			<point x="531" y="434"/>
			<point x="531" y="574" type="curve" smooth="yes"/>
			<point x="531" y="656"/>
			<point x="494" y="706"/>
			<point x="427" y="706" type="curve" smooth="yes"/>
			<point x="384" y="706"/>
			<point x="350" y="689"/>
			<point x="324" y="667" type="curve"/>
			<point x="321" y="667" type="line"/>
			<point x="319" y="698" type="line"/>
			<point x="229" y="698" type="line"/>
		</contour>
		<contour>
			<point x="339" y="448" type="curve" smooth="yes"/>
			<point x="323" y="448"/>
			<point x="306" y="452"/>
			<point x="293" y="465" type="curve"/>
			<point x="318" y="591" type="line"/>
			<point x="340" y="609"/>
			<point x="357" y="617"/>
			<point x="379" y="617" type="curve" smooth="yes"/>
			<point x="403" y="617"/>
			<point x="416" y="600"/>
			<point x="416" y="565" type="curve" smooth="yes"/>
			<point x="416" y="485"/>
			<point x="379" y="448"/>
		</contour>
	</outline>
</glyph>
<glyph name="paragraph" format="1">
	<advance width="600"/>
	<outline>
		<contour>
			<point x="274" y="190" type="curve" smooth="yes"/>
			<point x="294" y="190" type="line"/>
			<point x="386" y="650" type="line"/>
			<point x="360" y="650" type="line" smooth="yes"/>
			<point x="202" y="650"/>
			<point x="58" y="570"/>
			<point x="58" y="376" type="curve" smooth="yes"/>
			<point x="58" y="256"/>
			<point x="158" y="190"/>
		</contour>
		<contour>
			<point x="294" y="-80" type="line"/>
			<point x="454" y="-80" type="line"/>
			<point x="598" y="650" type="line"/>
			<point x="438" y="650" type="line"/>
		</contour>
	</outline>
</glyph>
<glyph name="parenright" format="1">
	<advance width="600"/>
	<outline>
		<contour>
			<point x="114" y="-189" type="line"/>
			<point x="305" y="-61"/>
			<point x="420" y="124"/>
			<point x="420" y="367" type="curve" smooth="yes"/>
			<point x="420" y="515"/>
			<point x="369" y="645"/>
			<point x="290" y="733" type="curve"/>
			<point x="187" y="664" type="line"/>
			<point x="251" y="582"/>
			<point x="288" y="480"/>
			<point x="288" y="367" type="curve" smooth="yes"/>
			<point x="288" y="189"/>
			<point x="218" y="36"/>
			<point x="37" y="-101" type="curve"/>
		</contour>
	</outline>
</glyph>
<glyph name="period.dnom" format="2">
	<advance width="600"/>
	<outline>
		<contour>
			<point x="238" y="-8" type="curve" smooth="yes"/>
			<point x="285" y="-8"/>
			<point x="319" y="26"/>
			<point x="319" y="70" type="curve" smooth="yes"/>
			<point x="319" y="102"/>
			<point x="299" y="127"/>
			<point x="266" y="127" type="curve" smooth="yes"/>
			<point x="219" y="127"/>
			<point x="184" y="90"/>
			<point x="184" y="47" type="curve" smooth="yes"/>
			<point x="184" y="15"/>
			<point x="206" y="-8"/>
		</contour>
	</outline>
</glyph>
<glyph name="peseta" format="1">
	<advance width="600"/>
	<outline>
		<contour>
			<point x="35" y="0" type="line"/>
			<point x="184" y="0" type="line"/>
			<point x="226" y="210" type="line"/>
			<point x="265" y="210" type="line" smooth="yes"/>
			<point x="414" y="210"/>
			<point x="559" y="289"/>
			<point x="559" y="465" type="curve" smooth="yes"/>
			<point x="559" y="589"/>
			<point x="475" y="635"/>
			<point x="350" y="635" type="curve" smooth="yes"/>
			<point x="162" y="635" type="line"/>
		</contour>
		<contour>
			<point x="246" y="310" type="line"/>
			<point x="291" y="536" type="line"/>
			<point x="321" y="536" type="line" smooth="yes"/>
			<point x="378" y="536"/>
			<point x="409" y="509"/>
			<point x="409" y="451" type="curve" smooth="yes"/>
			<point x="409" y="365"/>
			<point x="360" y="310"/>
			<point x="277" y="310" type="curve" smooth="yes"/>
		</contour>
		<contour>
			<point x="43" y="379" type="line"/>
			<point x="600" y="379" type="line"/>
			<point x="619" y="470" type="line"/>
			<point x="144" y="470" type="line"/>
			<point x="61" y="465" type="line"/>
		</contour>
	</outline>
</glyph>
<glyph name="pi" format="1">
	<advance width="600"/>
	<outline>
		<contour>
			<point x="178" y="-9" type="line"/>
			<point x="214" y="121"/>
			<point x="249" y="277"/>
			<point x="272" y="393" type="curve"/>
			<point x="126" y="393" type="line"/>
			<point x="107" y="286"/>
			<point x="66" y="134"/>
			<point x="22" y="0" type="curve"/>
		</contour>
		<contour>
			<point x="27" y="378" type="line"/>
			<point x="27" y="378"/>
			<point x="607" y="378"/>
			<point x="607" y="378" type="curve"/>
			<point x="631" y="500" type="line"/>
			<point x="126" y="500" type="line"/>
			<point x="50" y="494" type="line"/>
		</contour>
		<contour>
			<point x="445" y="-12" type="curve" smooth="yes"/>
			<point x="483" y="-12"/>
			<point x="525" y="-1"/>
			<point x="544" y="6" type="curve"/>
			<point x="533" y="121" type="line"/>
			<point x="523" y="118"/>
			<point x="512" y="115"/>
			<point x="501" y="115" type="curve" smooth="yes"/>
			<point x="486" y="115"/>
			<point x="474" y="122"/>
			<point x="474" y="146" type="curve" smooth="yes"/>
			<point x="474" y="179"/>
			<point x="501" y="290"/>
			<point x="527" y="388" type="curve"/>
			<point x="378" y="388" type="line"/>
			<point x="355" y="297"/>
			<point x="323" y="171"/>
			<point x="323" y="104" type="curve" smooth="yes"/>
			<point x="323" y="37"/>
			<point x="356" y="-12"/>
		</contour>
	</outline>
</glyph>
<glyph name="primereversed" format="1">
	<advance width="600"/>
	<outline>
		<contour>
			<point x="378" y="340" type="line"/>
			<point x="482" y="340" type="line"/>
			<point x="392" y="686" type="line"/>
			<point x="234" y="686" type="line"/>
			<point x="292" y="532" type="line"/>
		</contour>
	</outline>
</glyph>
<glyph name="q" format="1">
	<advance width="600"/>
	<outline>
		<contour>
			<point x="286" y="-176" type="line"/>
			<point x="444" y="-176" type="line"/>
			<point x="580" y="500" type="line"/>
			<point x="454" y="500" type="line"/>
			<point x="430" y="450" type="line"/>
			<point x="426" y="450" type="line"/>
			<point x="404" y="488"/>
			<point x="358" y="512"/>
			<point x="294" y="512" type="curve" smooth="yes"/>
			<point x="156" y="512"/>
			<point x="28" y="366"/>
			<point x="28" y="182" type="curve" smooth="yes"/>
			<point x="28" y="58"/>
			<point x="90" y="-12"/>
			<point x="188" y="-12" type="curve" smooth="yes"/>
			<point x="240" y="-12"/>
			<point x="300" y="16"/>
			<point x="346" y="66" type="curve"/>
			<point x="350" y="66" type="line"/>
			<point x="328" y="14"/>
			<point x="318" y="-26"/>
			<point x="313" y="-48" type="curve" smooth="yes"/>
		</contour>
		<contour>
			<point x="250" y="118" type="curve" smooth="yes"/>
			<point x="216" y="118"/>
			<point x="194" y="144"/>
			<point x="194" y="202" type="curve" smooth="yes"/>
			<point x="194" y="308"/>
			<point x="256" y="382"/>
			<point x="324" y="382" type="curve" smooth="yes"/>
			<point x="345" y="382"/>
			<point x="376" y="370"/>
			<point x="390" y="344" type="curve"/>
			<point x="358" y="188" type="line"/>
			<point x="324" y="138"/>
			<point x="282" y="118"/>
		</contour>
		<contour>
			<point name="aboveLC" x="349" y="520" type="move"/>
		</contour>
		<contour>
			<point name="belowLC" x="360" y="-200" type="move"/>
		</contour>
	</outline>
</glyph>
<glyph name="quoteright" format="1">
	<advance width="600"/>
	<outline>
		<contour>
			<point x="208" y="296" type="line"/>
			<point x="362" y="328"/>
			<point x="472" y="432"/>
			<point x="472" y="570" type="curve" smooth="yes"/>
			<point x="472" y="650"/>
			<point x="430" y="696"/>
			<point x="362" y="696" type="curve" smooth="yes"/>
			<point x="296" y="696"/>
			<point x="244" y="642"/>
			<point x="244" y="572" type="curve" smooth="yes"/>
			<point x="244" y="514"/>
			<point x="278" y="484"/>
			<point x="318" y="484" type="curve" smooth="yes"/>
			<point x="344" y="484"/>
			<point x="384" y="498"/>
			<point x="400" y="508" type="curve"/>
			<point x="368" y="611" type="line"/>
			<point x="342" y="489" type="line"/>
			<point x="326" y="444"/>
			<point x="274" y="394"/>
			<point x="190" y="376" type="curve"/>
		</contour>
	</outline>
</glyph>
<glyph name="ramshorn" format="1">
	<advance width="600"/>
	<outline>
		<contour>
			<point x="238" y="-12" type="curve" smooth="yes"/>
			<point x="379" y="-12"/>
			<point x="476" y="88"/>
			<point x="476" y="204" type="curve" smooth="yes"/>
			<point x="476" y="250"/>
			<point x="455" y="299"/>
			<point x="420" y="342" type="curve"/>
			<point x="448" y="370"/>
			<point x="469" y="384"/>
			<point x="493" y="384" type="curve" smooth="yes"/>
			<point x="510" y="384"/>
			<point x="526" y="378"/>
			<point x="535" y="370" type="curve"/>
			<point x="606" y="484" type="line"/>
			<point x="586" y="502"/>
			<point x="538" y="512"/>
			<point x="498" y="512" type="curve" smooth="yes"/>
			<point x="446" y="512"/>
			<point x="384" y="492"/>
			<point x="326" y="436" type="curve"/>
			<point x="292" y="492"/>
			<point x="239" y="512"/>
			<point x="186" y="512" type="curve" smooth="yes"/>
			<point x="146" y="512"/>
			<point x="95" y="502"/>
			<point x="68" y="484" type="curve"/>
			<point x="89" y="370" type="line"/>
			<point x="101" y="378"/>
			<point x="119" y="384"/>
			<point x="136" y="384" type="curve" smooth="yes"/>
			<point x="159" y="384"/>
			<point x="181" y="372"/>
			<point x="198" y="342" type="curve"/>
			<point x="115" y="274"/>
			<point x="72" y="202"/>
			<point x="72" y="134" type="curve" smooth="yes"/>
			<point x="72" y="37"/>
			<point x="136" y="-12"/>
		</contour>
		<contour>
			<point x="263" y="118" type="curve" smooth="yes"/>
			<point x="240" y="118"/>
			<point x="226" y="134"/>
			<point x="226" y="162" type="curve" smooth="yes"/>
			<point x="226" y="194"/>
			<point x="250" y="234"/>
			<point x="293" y="266" type="curve"/>
			<point x="312" y="244"/>
			<point x="322" y="218"/>
			<point x="322" y="194" type="curve" smooth="yes"/>
			<point x="322" y="150"/>
			<point x="298" y="118"/>
		</contour>
		<contour>
			<point name="aboveLC" x="334" y="520" type="move"/>
		</contour>
		<contour>
			<point name="belowLC" x="236" y="-20" type="move"/>
		</contour>
	</outline>
</glyph>
<glyph name="rfishhook" format="1">
	<advance width="600"/>
	<outline>
		<contour>
			<point x="64" y="0" type="line"/>
			<point x="229" y="0" type="line"/>
			<point x="280" y="262" type="line" smooth="yes"/>
			<point x="294" y="336"/>
			<point x="364" y="366"/>
			<point x="414" y="366" type="curve" smooth="yes"/>
			<point x="464" y="366"/>
			<point x="482" y="362"/>
			<point x="528" y="348" type="curve"/>
			<point x="582" y="492" type="line"/>
			<point x="548" y="504"/>
			<point x="492" y="512"/>
			<point x="418" y="512" type="curve" smooth="yes"/>
			<point x="240" y="512"/>
			<point x="148" y="418"/>
			<point x="124" y="300" type="curve" smooth="yes"/>
		</contour>
		<contour>
			<point name="aboveLC" x="380" y="520" type="move"/>
		</contour>
		<contour>
			<point name="belowLC" x="150" y="-20" type="move"/>
		</contour>
	</outline>
</glyph>
<glyph name="ringhalfleftmod" format="1">
	<advance width="600"/>
	<outline>
		<contour>
			<point x="434" y="540" type="curve"/>
			<point x="450" y="624" type="line"/>
			<point x="397" y="624"/>
			<point x="374" y="650"/>
			<point x="374" y="684" type="curve" smooth="yes"/>
			<point x="374" y="718"/>
			<point x="404" y="748"/>
			<point x="466" y="752" type="curve"/>
			<point x="482" y="836" type="line"/>
			<point x="330" y="838"/>
			<point x="254" y="776"/>
			<point x="254" y="676" type="curve" smooth="yes"/>
			<point x="254" y="590"/>
			<point x="320" y="536"/>
		</contour>
	</outline>
</glyph>
<glyph name="schwa" format="1">
	<advance width="600"/>
	<outline>
		<contour>
			<point x="258" y="-12" type="curve" smooth="yes"/>
			<point x="408" y="-12"/>
			<point x="540" y="108"/>
			<point x="540" y="288" type="curve" smooth="yes"/>
			<point x="540" y="444"/>
			<point x="448" y="512"/>
			<point x="324" y="512" type="curve" smooth="yes"/>
			<point x="238" y="512"/>
			<point x="162" y="490"/>
			<point x="102" y="448" type="curve"/>
			<point x="154" y="342" type="line"/>
			<point x="198" y="370"/>
			<point x="236" y="390"/>
			<point x="286" y="390" type="curve" smooth="yes"/>
			<point x="336" y="390"/>
			<point x="380" y="368"/>
			<point x="380" y="282" type="curve" smooth="yes"/>
			<point x="380" y="160"/>
			<point x="312" y="110"/>
			<point x="262" y="110" type="curve" smooth="yes"/>
			<point x="216" y="110"/>
			<point x="186" y="134"/>
			<point x="186" y="183" type="curve" smooth="yes"/>
			<point x="186" y="195"/>
			<point x="189" y="208"/>
			<point x="192" y="219" type="curve"/>
			<point x="150" y="196" type="line"/>
			<point x="404" y="196" type="line"/>
			<point x="421" y="296" type="line"/>
			<point x="58" y="296" type="line"/>
			<point x="52" y="278"/>
			<point x="40" y="230"/>
			<point x="40" y="186" type="curve" smooth="yes"/>
			<point x="40" y="68"/>
			<point x="120" y="-12"/>
		</contour>
		<contour>
			<point name="aboveLC" x="355" y="520" type="move"/>
		</contour>
		<contour>
			<point name="baseLC" x="238" y="0" type="move"/>
		</contour>
		<contour>
			<point name="belowLC" x="234" y="-20" type="move"/>
		</contour>
		<contour>
			<point name="ogonekLC" x="238" y="0" type="move"/>
		</contour>
	</outline>
</glyph>
<glyph name="schwa.sups" format="1">
	<advance width="600"/>
	<outline>
		<contour>
			<point x="313" y="360" type="curve" smooth="yes"/>
			<point x="415" y="360"/>
			<point x="516" y="429"/>
			<point x="516" y="564" type="curve" smooth="yes"/>
			<point x="516" y="652"/>
			<point x="453" y="706"/>
			<point x="365" y="706" type="curve" smooth="yes"/>
			<point x="314" y="706"/>
			<point x="253" y="690"/>
			<point x="211" y="662" type="curve"/>
			<point x="248" y="587" type="line"/>
			<point x="276" y="604"/>
			<point x="305" y="619"/>
			<point x="341" y="619" type="curve" smooth="yes"/>
			<point x="375" y="619"/>
			<point x="404" y="606"/>
			<point x="404" y="561" type="curve" smooth="yes"/>
			<point x="404" y="474"/>
			<point x="362" y="441"/>
			<point x="321" y="441" type="curve" smooth="yes"/>
			<point x="280" y="441"/>
			<point x="273" y="476"/>
			<point x="279" y="507" type="curve"/>
			<point x="239" y="498" type="line"/>
			<point x="426" y="498" type="line"/>
			<point x="426" y="564" type="line"/>
			<point x="199" y="564" type="line"/>
			<point x="193" y="550"/>
			<point x="181" y="520"/>
			<point x="181" y="479" type="curve" smooth="yes"/>
			<point x="181" y="413"/>
			<point x="223" y="360"/>
		</contour>
	</outline>
</glyph>
<glyph name="seven.cap" format="1">
	<advance width="600"/>
	<outline>
		<contour>
			<point x="118" y="0" type="curve"/>
			<point x="282" y="0" type="line"/>
			<point x="342" y="246"/>
			<point x="378" y="376"/>
			<point x="576" y="550" type="curve"/>
			<point x="596" y="650" type="line"/>
			<point x="124" y="650" type="line"/>
			<point x="98" y="516" type="line"/>
			<point x="420" y="516" type="line"/>
			<point x="399" y="531" type="line"/>
			<point x="250" y="394"/>
			<point x="168" y="228"/>
		</contour>
	</outline>
</glyph>
<glyph name="six.cap" format="2">
	<advance width="600"/>
	<outline>
		<contour>
			<point x="276" y="-12" type="curve" smooth="yes"/>
			<point x="424" y="-12"/>
			<point x="526" y="110"/>
			<point x="526" y="234" type="curve" smooth="yes"/>
			<point x="526" y="356"/>
			<point x="447" y="408"/>
			<point x="350" y="408" type="curve" smooth="yes"/>
			<point x="312" y="408"/>
			<point x="244" y="388"/>
			<point x="207" y="348" type="curve"/>
			<point x="192" y="236" type="line"/>
			<point x="232" y="288"/>
			<point x="272" y="300"/>
			<point x="306" y="300" type="curve" smooth="yes"/>
			<point x="355" y="300"/>
			<point x="380" y="272"/>
			<point x="380" y="221" type="curve" smooth="yes"/>
			<point x="380" y="174"/>
			<point x="352" y="106"/>
			<point x="284" y="106" type="curve" smooth="yes"/>
			<point x="234" y="106"/>
			<point x="198" y="138"/>
			<point x="198" y="202" type="curve" smooth="yes"/>
			<point x="198" y="434"/>
			<point x="286" y="534"/>
			<point x="388" y="534" type="curve" smooth="yes"/>
			<point x="432" y="534"/>
			<point x="462" y="518"/>
			<point x="484" y="488" type="curve"/>
			<point x="584" y="572" type="line"/>
			<point x="554" y="612"/>
			<point x="492" y="662"/>
			<point x="398" y="662" type="curve" smooth="yes"/>
			<point x="194" y="662"/>
			<point x="50" y="488"/>
			<point x="50" y="218" type="curve" smooth="yes"/>
			<point x="50" y="81"/>
			<point x="138" y="-12"/>
		</contour>
	</outline>
</glyph>
<glyph name="slash" format="1">
	<advance width="600"/>
	<outline>
		<contour>
			<point x="-18" y="-160" type="line"/>
			<point x="121" y="-160" type="line"/>
			<point x="625" y="710" type="line"/>
			<point x="485" y="710" type="line"/>
		</contour>
	</outline>
</glyph>
<glyph name="squarebelowcmb" format="1">
	<advance width="600"/>
	<outline>
		<contour>
			<point x="65" y="-250" type="line"/>
			<point x="315" y="-250" type="line"/>
			<point x="352" y="-62" type="line"/>
			<point x="103" y="-62" type="line"/>
		</contour>
		<contour>
			<point x="156" y="-190" type="line"/>
			<point x="170" y="-120" type="line"/>
			<point x="262" y="-120" type="line"/>
			<point x="248" y="-190" type="line"/>
		</contour>
		<contour>
			<point name="_belowLC" x="234" y="-20" type="move"/>
		</contour>
	</outline>
</glyph>
<glyph name="tugrik" format="1">
	<advance width="600"/>
	<outline>
		<contour>
			<point x="156" y="1" type="line"/>
			<point x="318" y="0" type="line"/>
			<point x="420" y="510" type="line"/>
			<point x="592" y="510" type="line"/>
			<point x="616" y="634" type="line"/>
			<point x="110" y="635" type="line"/>
			<point x="86" y="511" type="line"/>
			<point x="258" y="511" type="line"/>
		</contour>
		<contour>
			<point x="106" y="224" type="line"/>
			<point x="218" y="274" type="line"/>
			<point x="376" y="318" type="line"/>
			<point x="528" y="388" type="line"/>
			<point x="502" y="450" type="line"/>
			<point x="390" y="400" type="line"/>
			<point x="232" y="356" type="line"/>
			<point x="80" y="286" type="line"/>
		</contour>
		<contour>
			<point x="82" y="86" type="line"/>
			<point x="194" y="136" type="line"/>
			<point x="352" y="180" type="line"/>
			<point x="504" y="250" type="line"/>
			<point x="478" y="312" type="line"/>
			<point x="366" y="262" type="line"/>
			<point x="208" y="218" type="line"/>
			<point x="56" y="148" type="line"/>
		</contour>
	</outline>
</glyph>
<glyph name="two.dnom" format="2">
	<advance width="600"/>
	<outline>
		<contour>
			<point x="114" y="0" type="line"/>
			<point x="386" y="0" type="line"/>
			<point x="405" y="87" type="line"/>
			<point x="286" y="87" type="line"/>
			<point x="289" y="81" type="line"/>
			<point x="346" y="121"/>
			<point x="400" y="169"/>
			<point x="400" y="231" type="curve" smooth="yes"/>
			<point x="400" y="295"/>
			<point x="356" y="325"/>
			<point x="293" y="325" type="curve" smooth="yes"/>
			<point x="232" y="325"/>
			<point x="178" y="302"/>
			<point x="140" y="260" type="curve"/>
			<point x="195" y="199" type="line"/>
			<point x="216" y="220"/>
			<point x="237" y="234"/>
			<point x="260" y="234" type="curve" smooth="yes"/>
			<point x="277" y="234"/>
			<point x="286" y="225"/>
			<point x="286" y="209" type="curve" smooth="yes"/>
			<point x="286" y="168"/>
			<point x="208" y="115"/>
			<point x="125" y="60" type="curve"/>
		</contour>
	</outline>
</glyph>
<glyph name="variacmb" format="2">
	<advance width="600"/>
	<outline>
		<contour>
			<point x="386" y="569" type="line"/>
			<point x="484" y="645" type="line"/>
			<point x="360" y="844" type="line"/>
			<point x="224" y="742" type="line"/>
		</contour>
	</outline>
	<anchor name="_aboveLC" x="340" y="520"/>
</glyph>
<glyph name="zero.onum" format="1">
	<advance width="600"/>
	<outline>
		<contour>
			<point x="256" y="-12" type="curve" smooth="yes"/>
			<point x="454" y="-12"/>
			<point x="560" y="162"/>
			<point x="560" y="350" type="curve" smooth="yes"/>
			<point x="560" y="510"/>
			<point x="464" y="594"/>
			<point x="338" y="594" type="curve" smooth="yes"/>
			<point x="140" y="594"/>
			<point x="34" y="418"/>
			<point x="34" y="232" type="curve" smooth="yes"/>
			<point x="34" y="70"/>
			<point x="130" y="-12"/>
		</contour>
		<contour>
			<point x="270" y="110" type="curve" smooth="yes"/>
			<point x="206" y="110"/>
			<point x="182" y="160"/>
			<point x="182" y="234" type="curve" smooth="yes"/>
			<point x="182" y="364"/>
			<point x="236" y="472"/>
			<point x="324" y="472" type="curve" smooth="yes"/>
			<point x="388" y="472"/>
			<point x="412" y="420"/>
			<point x="412" y="348" type="curve" smooth="yes"/>
			<point x="412" y="216"/>
			<point x="358" y="110"/>
		</contour>
		<contour>
			<point x="286" y="216" type="curve" smooth="yes"/>
			<point x="332" y="216"/>
			<point x="364" y="260"/>
			<point x="364" y="310" type="curve" smooth="yes"/>
			<point x="364" y="350"/>
			<point x="344" y="374"/>
			<point x="308" y="374" type="curve" smooth="yes"/>
			<point x="262" y="374"/>
			<point x="230" y="330"/>
			<point x="230" y="280" type="curve" smooth="yes"/>
			<point x="230" y="240"/>
			<point x="250" y="216"/>
		</contour>
	</outline>
</glyph>
